<svg width="46" height="45" viewBox="0 0 46 45" fill="none" xmlns="http://www.w3.org/2000/svg">
<path d="M20.7212 17.2334L23.2654 19.777L27.1362 15.9062" stroke="#C8AB90" stroke-width="2" stroke-miterlimit="3.8637"/>
<path d="M24.0234 24.7226C27.9136 24.7226 31.0673 21.5689 31.0673 17.6787C31.0673 13.7884 27.9136 10.6348 24.0234 10.6348C20.1332 10.6348 16.9795 13.7884 16.9795 17.6787C16.9795 21.5689 20.1332 24.7226 24.0234 24.7226Z" stroke="#C8AB90" stroke-width="2" stroke-miterlimit="3.8637"/>
<path d="M10.7368 3.73047H7.88135V23.1475" stroke="#C8AB90" stroke-width="2" stroke-miterlimit="3.8637"/>
<path d="M13.2671 6.68555H34.7193" stroke="#C8AB90" stroke-width="2" stroke-miterlimit="3.8637"/>
<path d="M5.52767 16.3522H1.00391V43.9993H44.1026V16.3086H39.666" stroke="#C8AB90" stroke-width="2" stroke-miterlimit="3.8637"/>
<path d="M1.30029 43.9997L22.6441 27.4043L43.9731 43.9997" stroke="#C8AB90" stroke-width="2" stroke-miterlimit="3.8637"/>
<path d="M37.3773 23.346V1H10.7363V26.0272" stroke="#C8AB90" stroke-width="2" stroke-miterlimit="3.8637"/>
<path d="M1 16.4551L14.8012 30.2557" stroke="#C8AB90" stroke-width="2" stroke-miterlimit="3.8637"/>
<path d="M44.1024 16.4551L30.3013 30.2557" stroke="#C8AB90" stroke-width="2" stroke-miterlimit="3.8637"/>
</svg>
