<svg width="44" height="47" viewBox="0 0 44 47" fill="none" xmlns="http://www.w3.org/2000/svg">
<path d="M22.0003 28.857C23.1274 28.857 24.0411 27.9433 24.0411 26.8162C24.0411 25.6891 23.1274 24.7754 22.0003 24.7754C20.8732 24.7754 19.9595 25.6891 19.9595 26.8162C19.9595 27.9433 20.8732 28.857 22.0003 28.857Z" stroke="#C8AB90" stroke-width="2" stroke-miterlimit="3.8637"/>
<path d="M22.1305 13.3477C29.4979 13.3477 35.4704 19.378 35.4704 26.8173C35.4704 34.2561 29.4979 40.2864 22.1305 40.2864C18.4041 40.2864 15.0086 38.7432 12.6133 36.2557" stroke="#C8AB90" stroke-width="2" stroke-miterlimit="3.8637"/>
<path d="M22.0006 45.9982C32.5954 45.9982 41.1842 37.4094 41.1842 26.8145C41.1842 16.2197 32.5954 7.63086 22.0006 7.63086C11.4057 7.63086 2.81689 16.2197 2.81689 26.8145C2.81689 37.4094 11.4057 45.9982 22.0006 45.9982Z" stroke="#C8AB90" stroke-width="2" stroke-miterlimit="3.8637"/>
<path d="M21.9997 7.63225C23.5777 7.63225 24.8569 6.35307 24.8569 4.77511C24.8569 3.19716 23.5777 1.91797 21.9997 1.91797C20.4218 1.91797 19.1426 3.19716 19.1426 4.77511C19.1426 6.35307 20.4218 7.63225 21.9997 7.63225Z" stroke="#C8AB90" stroke-width="2" stroke-miterlimit="3.8637"/>
<path fill-rule="evenodd" clip-rule="evenodd" d="M2 11.1981L6.30235 6.81641L8.53061 9.08665L4.34689 13.347L2 11.1981Z" stroke="#C8AB90" stroke-width="2" stroke-miterlimit="3.8637"/>
<path fill-rule="evenodd" clip-rule="evenodd" d="M41.9989 11.1981L37.6971 6.81641L35.4683 9.08665L39.652 13.347L41.9989 11.1981Z" stroke="#C8AB90" stroke-width="2" stroke-miterlimit="3.8637"/>
<path d="M12.6133 36.2043L20.3684 28.4492" stroke="#C8AB90" stroke-width="2" stroke-miterlimit="3.8637" stroke-linecap="square"/>
</svg>
