<svg width="43" height="43" viewBox="0 0 43 43" fill="none" xmlns="http://www.w3.org/2000/svg">
<path d="M4.37641 31.8463C2.4807 28.7714 1.41895 25.1577 1.41895 21.2912C1.41895 10.085 10.5034 1 21.7097 1C32.916 1 42.0004 10.0844 42.0004 21.2912C42.0004 25.2093 40.8902 28.8676 38.9673 31.9691" stroke="#C8AB90" stroke-width="2" stroke-miterlimit="3.8637"/>
<path d="M0.986328 31.8498H4.40838L5.3035 27.9102" stroke="#C8AB90" stroke-width="2" stroke-miterlimit="3.8637"/>
<path d="M41.9992 31.8717H38.9426L38.1138 27.9102" stroke="#C8AB90" stroke-width="2" stroke-miterlimit="3.8637"/>
<path d="M14.5815 16.2474C14.5815 16.2474 16.4321 16.6677 16.4321 15.2803C16.4321 13.8923 16.4321 13.6314 16.4321 13.6314C16.4321 13.6314 16.2217 12.2853 17.9549 12.2853C19.6881 12.2853 23.2294 12.2853 23.2294 12.2853C23.2294 12.2853 25.173 12.2516 25.846 10.6875" stroke="#C8AB90" stroke-width="2" stroke-miterlimit="3.8637"/>
<path d="M25.8488 10.7721V12.16C25.8488 12.16 27.1524 11.8572 27.1524 13.2957C27.1524 14.7342 27.1524 14.7766 27.1524 14.7766C27.1524 14.7766 26.9926 16.543 29.0536 16.543V9.71252C29.0536 9.71252 28.7589 6.88607 26.5212 6.88607C24.2836 6.88607 19.1776 6.88607 19.1776 6.88607C19.1776 6.88607 17.2851 6.63381 17.2851 9.12374C17.2851 9.12374 14.543 8.58553 14.543 11.0249C14.543 13.4643 14.543 18.1918 14.543 18.1918" stroke="#C8AB90" stroke-width="2" stroke-miterlimit="3.8637" stroke-linecap="round"/>
<path d="M28.2777 19.0449C28.2777 22.9728 25.3675 26.5734 21.7778 26.5734C18.1881 26.5734 15.2773 22.9728 15.2773 19.0449" stroke="#C8AB90" stroke-width="2" stroke-miterlimit="3.8637" stroke-linecap="round"/>
<path d="M17.7349 24.8867V29.5692L21.9199 30.8337L25.8641 29.5165V24.8867" stroke="#C8AB90" stroke-width="2" stroke-miterlimit="3.8637"/>
<path d="M17.7351 29.4629H16.0264L13.6022 31.9398C13.6022 31.9398 9.31118 32.4889 7.28662 35.6203" stroke="#C8AB90" stroke-width="2" stroke-miterlimit="3.8637"/>
<path d="M25.9194 29.4082H27.2894L29.7886 31.7274C29.7886 31.7274 33.9742 31.697 36.3146 35.7244" stroke="#C8AB90" stroke-width="2" stroke-miterlimit="3.8637"/>
<path d="M7.2334 35.7266C7.2334 35.7266 11.4494 41.7263 21.9202 41.7263C32.3909 41.7263 36.2073 35.7266 36.2073 35.7266" stroke="#C8AB90" stroke-width="2" stroke-miterlimit="3.8637" stroke-linecap="round"/>
<path d="M13.4946 31.8867L18.9975 34.649L21.9712 32.0449L24.7335 34.7018L29.8368 31.834" stroke="#C8AB90" stroke-width="2" stroke-miterlimit="3.8637"/>
<path d="M21.9199 30.832V32.1498" stroke="#C8AB90" stroke-width="2" stroke-miterlimit="3.8637"/>
<path d="M29.077 16.5293V18.0189L28.2974 19.0529" stroke="#C8AB90" stroke-width="2" stroke-miterlimit="3.8637"/>
<path d="M14.5493 18.082L15.2745 19.1155" stroke="#C8AB90" stroke-width="2" stroke-miterlimit="3.8637"/>
</svg>
