<svg width="37" height="48" viewBox="0 0 37 48" fill="none" xmlns="http://www.w3.org/2000/svg">
<path fill-rule="evenodd" clip-rule="evenodd" d="M24.999 37.4353V8.88867H3.99902V40.7776H24.999V37.4353Z" stroke="#C8AB90" stroke-width="2" stroke-miterlimit="3.8637"/>
<path d="M12.9346 43.9434H15.7105" stroke="#C8AB90" stroke-width="2" stroke-miterlimit="3.8637"/>
<path d="M28.2222 37.4255V43.3206C28.2222 45.3527 26.5453 47.0002 24.4768 47.0002H4.7454C2.67692 47.0002 1 45.3527 1 43.3206V4.79099C1 2.75881 2.67692 1.11133 4.7454 1.11133H24.4768C26.5453 1.11133 28.2222 2.75881 28.2222 4.79099V37.4255Z" stroke="#C8AB90" stroke-width="2" stroke-miterlimit="3.8637"/>
<rect x="10.9995" y="4.22266" width="7" height="1.55556" fill="#B59475"/>
<rect x="7.99902" y="13.5566" width="23.3333" height="23.3333" fill="#F2F1F0"/>
<path fill-rule="evenodd" clip-rule="evenodd" d="M7.99902 16.447C7.99902 16.1383 8.22394 15.8887 8.50083 15.8887H35.4972C35.7746 15.8887 35.999 16.1383 35.999 16.447V33.997C35.999 34.3056 35.7741 34.5553 35.4972 34.5553H8.50083C8.22394 34.5553 7.99902 34.3056 7.99902 33.997V16.447Z" stroke="#C8AB90" stroke-width="2" stroke-miterlimit="3.8637"/>
<rect x="8.77734" y="19" width="27.2222" height="1.55556" fill="#B59475"/>
<rect x="8.77734" y="24.4453" width="27.2222" height="1.55556" fill="#B59475"/>
<rect x="10.3335" y="27.5547" width="8.55556" height="1.55556" fill="#B59475"/>
<path d="M32.8898 28.334H21.2231V31.4451H32.8898V28.334Z" stroke="#C8AB90" stroke-width="2" stroke-miterlimit="3.8637"/>
</svg>
