<svg aria-hidden="true" xmlns="http://www.w3.org/2000/svg" xmlns:xlink="http://www.w3.org/1999/xlink"><symbol viewBox="0 0 47 50" id="abaut-the-brand-01" xmlns="http://www.w3.org/2000/svg">
<path fill-rule="evenodd" clip-rule="evenodd" d="M31.2757 0.373414C33.1096 -0.393562 35.5595 -0.0805826 38.2204 2.20664C39.3192 3.15161 39.9885 4.13041 40.3292 5.10295C40.6709 6.07804 40.6609 6.98578 40.4955 7.75192C40.3319 8.50929 40.0182 9.12364 39.7521 9.54391C39.6179 9.75589 39.4922 9.92409 39.3969 10.0427C39.3492 10.1021 39.3087 10.1496 39.2781 10.1843C39.2628 10.2016 39.25 10.2159 39.2399 10.2269L39.2314 10.236L34.6419 15.307L33.1591 13.965L37.7618 8.8793L37.7659 8.87505L37.7668 8.87408L37.7772 8.86246C37.7892 8.84883 37.8101 8.8245 37.8377 8.79017C37.8931 8.72121 37.9738 8.61387 38.0624 8.4739C38.242 8.19026 38.4401 7.79504 38.5405 7.32979C38.6391 6.87331 38.6453 6.34536 38.4418 5.76429C38.2373 5.18072 37.7997 4.48279 36.9166 3.72332C34.6662 1.78884 33.0054 1.81945 32.0507 2.21713C31.7268 2.35633 31.3374 2.71023 30.9169 3.24799C30.5739 3.68652 30.2802 4.15271 30.0238 4.5597C29.9753 4.63672 29.9281 4.71161 29.8822 4.78379C28.2128 7.4067 24.9259 12.5433 22.0572 17.0229C20.6227 19.2629 19.2925 21.3391 18.3209 22.8553L16.7368 25.327L6.84534 41.0976L30.22 17.0874L31.653 18.4825L1.71603 49.2335L0.152344 48.0046L15.0526 24.2483L15.8945 24.788C15.0526 24.2483 15.0525 24.2484 15.0526 24.2483L16.637 21.7762C17.6085 20.2602 18.9386 18.1841 20.373 15.9443C23.2421 11.4641 26.5273 6.33014 28.1949 3.71004C28.2331 3.64997 28.2747 3.58381 28.3195 3.51264C28.5737 3.10835 28.9295 2.54268 29.3414 2.01598C29.8119 1.41434 30.4608 0.720751 31.2693 0.376082L31.2757 0.373414Z"/>
<path fill-rule="evenodd" clip-rule="evenodd" d="M34.9376 5.6699C34.9376 5.6699 36.2346 6.7079 35.1236 8.3009C34.0126 9.8939 30.7515 13.7099 30.7515 13.7099C30.7515 13.7099 29.8256 14.4879 28.5656 13.5619C27.3066 12.6359 27.5285 11.4869 28.1955 10.5979C28.8625 9.7089 31.6776 5.9669 31.6776 5.9669C32.6866 4.6939 33.7736 4.5949 34.9376 5.6699Z" stroke-width="2" stroke-miterlimit="3.8637"/>
<path d="M29.4546 8.96875C29.4546 8.96875 31.6406 10.7108 33.0486 12.7478C34.4566 14.7858 34.8176 21.8717 30.2146 30.5597C25.6116 39.2477 32.5486 44.9537 36.6986 44.6937C40.8476 44.4347 44.3496 42.5538 45.0626 38.3398" stroke-width="2" stroke-miterlimit="3.8637"/>
<path d="M24.5075 6.56919C24.1195 6.37419 6.94954 2.13219 4.27854 12.9232C2.65754 19.4712 10.3675 20.9582 15.2305 18.0892" stroke-width="2" stroke-miterlimit="3.8637"/>
</symbol><symbol viewBox="0 0 34 54" id="abaut-the-brand-02" xmlns="http://www.w3.org/2000/svg">
<path d="M16.8 5.646C19.4742 5.646 21.642 4.60596 21.642 3.323C21.642 2.04004 19.4742 1 16.8 1C14.1259 1 11.958 2.04004 11.958 3.323C11.958 4.60596 14.1259 5.646 16.8 5.646Z" stroke-width="2" stroke-miterlimit="3.8637"/>
<path d="M21.7621 3.42969V7.59669C21.7621 7.59669 21.4621 8.76069 22.6601 9.57369C23.8581 10.3867 31.3521 14.4927 31.3521 14.4927C31.3521 14.4927 33.9871 15.7767 31.8311 20.1567C29.6751 24.5367 25.9871 30.8147 25.9871 30.8147C25.9871 30.8147 24.7291 33.5697 26.5261 35.7597C28.3231 37.9497 31.4711 43.6477 31.4711 48.5327C31.4711 48.5327 28.3231 52.8797 16.1821 52.8797H17.4971C5.35705 52.8797 2.20805 48.5327 2.20805 48.5327C2.20805 43.6477 5.35606 37.9497 7.15306 35.7597C8.95006 33.5697 7.69206 30.8147 7.69206 30.8147C7.69206 30.8147 4.00407 24.5367 1.84807 20.1567C-0.307933 15.7767 2.32706 14.4927 2.32706 14.4927C2.32706 14.4927 9.82206 10.3857 11.0191 9.57369C12.2171 8.76069 11.9171 7.59669 11.9171 7.59669V3.42969" stroke-width="2" stroke-miterlimit="3.8637"/>
</symbol><symbol viewBox="0 0 52 52" id="abaut-the-brand-03" xmlns="http://www.w3.org/2000/svg">
<path fill-rule="evenodd" clip-rule="evenodd" d="M26 12.3094L35.8571 3V16.7343L26.0464 26L26 12.3094Z" stroke-width="2" stroke-miterlimit="3.8637"/>
<path d="M35.3672 16.1426H49L39.5937 25.9997H26" stroke-width="2" stroke-miterlimit="3.8637"/>
<path fill-rule="evenodd" clip-rule="evenodd" d="M25.9997 12.3094L16.1426 3V16.7343L25.9523 26L25.9997 12.3094Z" stroke-width="2" stroke-miterlimit="3.8637"/>
<path d="M16.6327 16.1426H3L12.4063 25.9997H26" stroke-width="2" stroke-miterlimit="3.8637"/>
<path fill-rule="evenodd" clip-rule="evenodd" d="M26 39.6906L35.8571 49V35.2647L26.0464 26L26 39.6906Z" stroke-width="2" stroke-miterlimit="3.8637"/>
<path d="M35.3672 35.8571H49L39.5937 26H26" stroke-width="2" stroke-miterlimit="3.8637"/>
<path fill-rule="evenodd" clip-rule="evenodd" d="M25.9997 39.6906L16.1426 49V35.2647L25.9523 26L25.9997 39.6906Z" stroke-width="2" stroke-miterlimit="3.8637"/>
<path d="M16.6327 35.8571H3L12.4063 26H26" stroke-width="2" stroke-miterlimit="3.8637"/>
</symbol><symbol viewBox="0 0 62 49" id="abaut-the-brand-04" xmlns="http://www.w3.org/2000/svg">
<path fill-rule="evenodd" clip-rule="evenodd" d="M8.16319 4.86541H52.6229C53.484 4.86541 54.1947 5.06384 54.7587 5.42832C55.3226 5.79265 55.6712 6.27857 55.8811 6.74158C56.0874 7.19675 56.1639 7.63723 56.1918 7.95243C56.206 8.11281 56.2083 8.24859 56.2067 8.34834C56.2059 8.39842 56.2041 8.44002 56.2023 8.47176C56.2021 8.47541 56.2019 8.47893 56.2017 8.48232L56.1993 8.84184C56.1977 9.09321 56.1955 9.45568 56.193 9.89994C56.1881 10.7885 56.1822 12.004 56.1783 13.3119C56.1704 15.9334 56.1705 18.9088 56.2017 20.3762C56.2193 21.2039 56.0527 21.8938 55.7298 22.4503C55.4059 23.0088 54.9616 23.3692 54.5276 23.5946C54.1019 23.8157 53.6865 23.9077 53.3876 23.9469C53.2357 23.9668 53.1065 23.974 53.011 23.976C52.9631 23.9771 52.923 23.9768 52.8921 23.9761C52.8835 23.9759 52.8757 23.9757 52.8685 23.9754C52.8681 23.9754 52.8677 23.9754 52.8672 23.9754H42.8929L39.5909 18.3604H12.8339V16.3604H40.7349L44.0369 21.9754H52.9183L52.9386 21.9766C52.9413 21.9767 52.9456 21.9767 52.9515 21.9767C52.9562 21.9767 52.9618 21.9766 52.9684 21.9765C53.0024 21.9758 53.0581 21.973 53.1277 21.9639C53.2718 21.945 53.4457 21.9029 53.6057 21.8197C53.7575 21.7409 53.8954 21.6269 53.9998 21.4468C54.1054 21.2648 54.2135 20.9519 54.2021 20.4187C54.1703 18.9221 54.1704 15.9204 54.1783 13.3059C54.1822 11.9958 54.1882 10.7786 54.1931 9.88887C54.1955 9.444 54.1978 9.08097 54.1994 8.82913L54.2019 8.43807L54.2019 8.43683C54.2019 8.43675 54.2019 8.4364 55.2019 8.4434L54.2019 8.43683L54.2022 8.39308L54.2056 8.35787C54.2056 8.35764 54.2055 8.35812 54.2056 8.35787M8.16319 4.86541C7.16377 4.85799 6.28972 5.091 5.71781 5.79091C5.19399 6.43196 5.11151 7.2593 5.08761 7.90013L5.08691 7.91876V48.1474H58.8838L58.9027 48.1467C59.6242 48.1194 60.3311 47.915 60.8578 47.3881C61.3876 46.8581 61.5862 46.151 61.5997 45.4313L61.5999 45.4218V42.5141L61.5981 42.4839C61.5529 41.7389 61.3346 41.0165 60.8007 40.4823C60.2568 39.9382 59.5342 39.7371 58.7928 39.7364H27.9139V41.7364H58.791C59.1826 41.7368 59.3275 41.8376 59.3862 41.8962C59.4533 41.9634 59.569 42.1385 59.5999 42.5769V45.4022C59.5912 45.7889 59.4914 45.9261 59.4433 45.9742C59.3925 46.0251 59.2459 46.1294 58.8445 46.1474H7.08691V7.95667C7.11105 7.35131 7.199 7.13904 7.26653 7.0564C7.28707 7.03123 7.4272 6.85951 8.15082 6.86537L8.15892 6.86541V5.86541"/>
<path fill-rule="evenodd" clip-rule="evenodd" d="M12.125 1V5.914H10.125V1H12.125Z"/>
<path fill-rule="evenodd" clip-rule="evenodd" d="M7.80957 2.0625V0.0625H14.6569L14.6575 2.0625H7.80957Z"/>
<path fill-rule="evenodd" clip-rule="evenodd" d="M39.1318 17.3524V12.8984H41.1318V17.3524H39.1318Z"/>
<path fill-rule="evenodd" clip-rule="evenodd" d="M34.0371 17.3524V12.8984H36.0371V17.3524H34.0371Z"/>
<path fill-rule="evenodd" clip-rule="evenodd" d="M28.9434 17.3526V10.9766H30.9434V17.3526H28.9434Z"/>
<path fill-rule="evenodd" clip-rule="evenodd" d="M21.499 42.2296V17.3516H23.499V42.2296H21.499Z"/>
<path d="M10.6172 23.498H13.1042V25.985H10.6172V23.498Z"/>
<path d="M10.6172 28.9141H13.1042V31.4001H10.6172V28.9141Z"/>
<path fill-rule="evenodd" clip-rule="evenodd" d="M12.5889 36.4707V39.9317H16.0509V36.4707H12.5889ZM10.5889 35.9827C10.5889 35.1461 11.2669 34.4707 12.1019 34.4707H16.5379C17.3706 34.4707 18.0509 35.1449 18.0509 35.9827V40.4187C18.0509 41.2527 17.3754 41.9317 16.5379 41.9317H12.1019C11.2679 41.9317 10.5889 41.2563 10.5889 40.4187V35.9827Z"/>
<path fill-rule="evenodd" clip-rule="evenodd" d="M45.1875 21.9785H53.1515V29.9425H45.1875V21.9785ZM47.1875 23.9785V27.9425H51.1515V23.9785H47.1875Z"/>
<path fill-rule="evenodd" clip-rule="evenodd" d="M48.2227 35.8571V28.9531H50.2227V35.8571H48.2227Z"/>
<path fill-rule="evenodd" clip-rule="evenodd" d="M2 15.002H6.12799V13.002H1.854C0.829725 13.002 0 13.8317 0 14.856V25.474C0 26.4982 0.829725 27.328 1.854 27.328H6.091V25.328H2V15.002Z"/>
<path fill-rule="evenodd" clip-rule="evenodd" d="M1.09375 46.1484H6.76875V48.1484H1.09375V46.1484Z"/>
</symbol><symbol viewBox="0 0 52 49" id="abaut-the-brand-05" xmlns="http://www.w3.org/2000/svg">
<path fill-rule="evenodd" clip-rule="evenodd" d="M31.9351 25.0406L26.0381 21.4886L20.1411 25.0406L21.6961 18.3346L16.4961 13.8236L23.3551 13.2296L26.0381 6.89062L28.7211 13.2296L35.5801 13.8236L30.3801 18.3346L31.9351 25.0406Z" stroke-width="2" stroke-miterlimit="3.8637"/>
<path d="M40.6152 4.86133H50.0762C50.0762 4.86133 48.1142 13.0983 40.6702 15.6843" stroke-width="2" stroke-miterlimit="3.8637"/>
<path d="M11.461 4.86133H2C2 4.86133 3.962 13.0983 11.406 15.6843" stroke-width="2" stroke-miterlimit="3.8637"/>
<path d="M25.8765 1H40.6805V22.159C40.6415 23.85 40.4725 36.703 26.0195 36.703C11.5665 36.703 11.4335 23.85 11.3945 22.16V1H26.1985" stroke-width="2" stroke-miterlimit="3.8637"/>
<path d="M26.0742 36.6914V47.5634" stroke-width="2" stroke-miterlimit="3.8637"/>
<path d="M12.4473 47.6133H39.4573" stroke-width="2" stroke-miterlimit="3.8637"/>
</symbol><symbol viewBox="0 0 40 40" id="delivery-clock" xmlns="http://www.w3.org/2000/svg">
<path d="M15 20H29" stroke-width="2"/>
<path d="M20 24L20 7" stroke-width="2"/>
<path d="M0 20H4" stroke-width="2"/>
<path d="M36 20H40" stroke-width="2"/>
<path d="M5.85791 34.1426L8.68634 31.3142" stroke-width="2"/>
<path d="M31.3135 8.68555L34.1419 5.85712" stroke-width="2"/>
<path d="M34.1426 34.1426L31.3142 31.3142" stroke-width="2"/>
<path d="M8.68555 8.6875L5.85712 5.85907" stroke-width="2"/>
<path d="M20 40L20 36" stroke-width="2"/>
<path d="M20 4L20 -1.78814e-07" stroke-width="2"/>
<circle cx="20" cy="20" r="19" stroke-width="2"/>
</symbol><symbol viewBox="0 0 40 42" id="delivery-present" xmlns="http://www.w3.org/2000/svg">
<path d="M1 10.9014H38.832V17.8384H1V10.9014Z" stroke-width="2" stroke-miterlimit="3.8637"/>
<path d="M16.5 10.9023H23.068V40.1003H16.5V10.9023Z" stroke-width="2" stroke-miterlimit="3.8637"/>
<path d="M37.5692 17.8584H2.43115V40.0994H37.5692V17.8584Z" stroke-width="2" stroke-miterlimit="3.8637"/>
<path d="M20.1789 10.7888C20.1789 10.7888 19.6419 5.75277 20.9509 3.47077C22.2599 1.18877 25.7679 -0.0542263 27.3459 2.16177C28.9239 4.37677 27.7829 9.37777 20.5979 10.8888" stroke-width="2" stroke-miterlimit="3.8637"/>
<path d="M19.9938 10.7888C19.9938 10.7888 20.5308 5.75277 19.2218 3.47077C17.9128 1.18877 14.4048 -0.0542263 12.8268 2.16177C11.2488 4.37677 12.3898 9.37777 19.5748 10.8888" stroke-width="2" stroke-miterlimit="3.8637"/>
</symbol><symbol viewBox="0 0 28 28" id="delivery-qestion" xmlns="http://www.w3.org/2000/svg">
<path fill-rule="evenodd" clip-rule="evenodd" d="M13.5417 27.0834C15.877 27.0834 18.1283 26.4902 20.1222 25.3795L25.8574 25.8574L25.3795 20.1223C26.4902 18.1283 27.0834 15.877 27.0834 13.5417C27.0834 6.06282 21.0206 0 13.5417 0C6.06282 0 0 6.06282 0 13.5417C0 21.0206 6.06282 27.0834 13.5417 27.0834ZM19.114 22.8333L19.4886 22.6082L22.8926 22.8918L22.6089 19.4879L22.8341 19.1133C23.8374 17.4442 24.375 15.5336 24.375 13.5409C24.375 7.55779 19.5247 2.70754 13.5416 2.70754C7.55854 2.70754 2.70828 7.55779 2.70828 13.5409C2.70828 19.524 7.55854 24.3742 13.5416 24.3742C15.5343 24.3742 17.4449 23.8367 19.114 22.8333ZM13.5421 20.3099C14.2902 20.3099 14.8967 19.7036 14.8967 18.9557C14.8967 18.2078 14.2902 17.6016 13.5421 17.6016C12.7939 17.6016 12.1874 18.2078 12.1874 18.9557C12.1874 19.7036 12.7939 20.3099 13.5421 20.3099ZM12.1876 16.2488H14.8959V14.8947C14.8959 14.898 14.9023 14.8909 14.9168 14.875C14.9523 14.8358 15.0366 14.743 15.1945 14.6177C15.3301 14.5101 15.3722 14.4822 15.7149 14.2649C16.8812 13.5256 17.6043 12.2399 17.6043 10.8322C17.6043 8.5885 15.7854 6.76965 13.5418 6.76965C11.2981 6.76965 9.47925 8.5885 9.47925 10.8322H12.1876C12.1876 10.0843 12.7939 9.47799 13.5418 9.47799C14.2896 9.47799 14.8959 10.0843 14.8959 10.8322C14.8959 11.3025 14.6556 11.7298 14.2648 11.9775C13.8264 12.2555 13.7536 12.3037 13.5113 12.496C12.7059 13.1349 12.1876 13.8962 12.1876 14.8947V16.2488Z"/>
</symbol><symbol viewBox="0 0 36 37" id="delivery-qustion-form" xmlns="http://www.w3.org/2000/svg">
<rect x="1" y="1" width="34" height="26" rx="3" stroke-width="2"/>
<path d="M12 32.0897V25.1346L19.4901 24.5996L12 32.0897Z"/>
<rect x="9" y="9" width="18.1144" height="2"/>
<rect x="9" y="15" width="14" height="2"/>
<path d="M11 27V34.5L18.5 27" stroke-width="2"/>
</symbol></svg>