<svg aria-hidden="true" xmlns="http://www.w3.org/2000/svg" xmlns:xlink="http://www.w3.org/1999/xlink"><symbol viewBox="0 0 40 40" id="delivery-clock" xmlns="http://www.w3.org/2000/svg">
<path d="M15 20H29" stroke-width="2"/>
<path d="M20 24L20 7" stroke-width="2"/>
<path d="M0 20H4" stroke-width="2"/>
<path d="M36 20H40" stroke-width="2"/>
<path d="M5.85791 34.1426L8.68634 31.3142" stroke-width="2"/>
<path d="M31.3135 8.68555L34.1419 5.85712" stroke-width="2"/>
<path d="M34.1426 34.1426L31.3142 31.3142" stroke-width="2"/>
<path d="M8.68555 8.6875L5.85712 5.85907" stroke-width="2"/>
<path d="M20 40L20 36" stroke-width="2"/>
<path d="M20 4L20 -1.78814e-07" stroke-width="2"/>
<circle cx="20" cy="20" r="19" stroke-width="2"/>
</symbol><symbol viewBox="0 0 40 42" id="delivery-present" xmlns="http://www.w3.org/2000/svg">
<path d="M1 10.9014H38.832V17.8384H1V10.9014Z" stroke-width="2" stroke-miterlimit="3.8637"/>
<path d="M16.5 10.9023H23.068V40.1003H16.5V10.9023Z" stroke-width="2" stroke-miterlimit="3.8637"/>
<path d="M37.5692 17.8584H2.43115V40.0994H37.5692V17.8584Z" stroke-width="2" stroke-miterlimit="3.8637"/>
<path d="M20.1789 10.7888C20.1789 10.7888 19.6419 5.75277 20.9509 3.47077C22.2599 1.18877 25.7679 -0.0542263 27.3459 2.16177C28.9239 4.37677 27.7829 9.37777 20.5979 10.8888" stroke-width="2" stroke-miterlimit="3.8637"/>
<path d="M19.9938 10.7888C19.9938 10.7888 20.5308 5.75277 19.2218 3.47077C17.9128 1.18877 14.4048 -0.0542263 12.8268 2.16177C11.2488 4.37677 12.3898 9.37777 19.5748 10.8888" stroke-width="2" stroke-miterlimit="3.8637"/>
</symbol><symbol viewBox="0 0 28 28" id="delivery-qestion" xmlns="http://www.w3.org/2000/svg">
<path fill-rule="evenodd" clip-rule="evenodd" d="M13.5417 27.0834C15.877 27.0834 18.1283 26.4902 20.1222 25.3795L25.8574 25.8574L25.3795 20.1223C26.4902 18.1283 27.0834 15.877 27.0834 13.5417C27.0834 6.06282 21.0206 0 13.5417 0C6.06282 0 0 6.06282 0 13.5417C0 21.0206 6.06282 27.0834 13.5417 27.0834ZM19.114 22.8333L19.4886 22.6082L22.8926 22.8918L22.6089 19.4879L22.8341 19.1133C23.8374 17.4442 24.375 15.5336 24.375 13.5409C24.375 7.55779 19.5247 2.70754 13.5416 2.70754C7.55854 2.70754 2.70828 7.55779 2.70828 13.5409C2.70828 19.524 7.55854 24.3742 13.5416 24.3742C15.5343 24.3742 17.4449 23.8367 19.114 22.8333ZM13.5421 20.3099C14.2902 20.3099 14.8967 19.7036 14.8967 18.9557C14.8967 18.2078 14.2902 17.6016 13.5421 17.6016C12.7939 17.6016 12.1874 18.2078 12.1874 18.9557C12.1874 19.7036 12.7939 20.3099 13.5421 20.3099ZM12.1876 16.2488H14.8959V14.8947C14.8959 14.898 14.9023 14.8909 14.9168 14.875C14.9523 14.8358 15.0366 14.743 15.1945 14.6177C15.3301 14.5101 15.3722 14.4822 15.7149 14.2649C16.8812 13.5256 17.6043 12.2399 17.6043 10.8322C17.6043 8.5885 15.7854 6.76965 13.5418 6.76965C11.2981 6.76965 9.47925 8.5885 9.47925 10.8322H12.1876C12.1876 10.0843 12.7939 9.47799 13.5418 9.47799C14.2896 9.47799 14.8959 10.0843 14.8959 10.8322C14.8959 11.3025 14.6556 11.7298 14.2648 11.9775C13.8264 12.2555 13.7536 12.3037 13.5113 12.496C12.7059 13.1349 12.1876 13.8962 12.1876 14.8947V16.2488Z"/>
</symbol><symbol viewBox="0 0 36 37" id="delivery-qustion-form" xmlns="http://www.w3.org/2000/svg">
<rect x="1" y="1" width="34" height="26" rx="3" stroke-width="2"/>
<path d="M12 32.0897V25.1346L19.4901 24.5996L12 32.0897Z"/>
<rect x="9" y="9" width="18.1144" height="2"/>
<rect x="9" y="15" width="14" height="2"/>
<path d="M11 27V34.5L18.5 27" stroke-width="2"/>
</symbol></svg>