<svg width="20" height="22" viewBox="0 0 20 22" fill="none" xmlns="http://www.w3.org/2000/svg">
<path fill-rule="evenodd" clip-rule="evenodd" d="M-0.000976562 4.00195H3.73406V5.00195H0.999023V20.3598H3.67929V21.3598H-0.000976562V4.00195Z" fill="#333333"/>
<path fill-rule="evenodd" clip-rule="evenodd" d="M8.58649 1.38086C7.40549 1.38086 6.39062 2.41682 6.39062 3.76822V5.19399L5.39062 5.19424V3.76822C5.39062 1.93028 6.78968 0.380859 8.58649 0.380859C10.3833 0.380859 11.7824 1.93028 11.7824 3.76822V5.19402L10.7824 5.19417V3.76822C10.7824 2.41682 9.76749 1.38086 8.58649 1.38086Z" fill="#333333"/>
<path d="M3.75879 4.50195H19.499V20.8598H3.75879V4.50195Z" fill="#E1C4A9"/>
<path fill-rule="evenodd" clip-rule="evenodd" d="M3.25879 4.00195H19.999V21.3598H3.25879V4.00195ZM4.25879 5.00195V20.3598H18.999V5.00195H4.25879Z" fill="black"/>
<path fill-rule="evenodd" clip-rule="evenodd" d="M11.8218 1.38086C10.5905 1.38086 9.62598 2.336 9.62598 3.47365V6.27183L8.62598 6.27257V3.47365C8.62598 1.74733 10.0753 0.380859 11.8218 0.380859C13.5683 0.380859 15.0177 1.74733 15.0177 3.47365V6.27183L14.0177 6.27257V3.47365C14.0177 2.336 13.0532 1.38086 11.8218 1.38086Z" fill="#333333"/>
</svg>
