<svg width="23" height="20" viewBox="0 0 23 20" fill="none" xmlns="http://www.w3.org/2000/svg">
<path fill-rule="evenodd" clip-rule="evenodd" d="M11.4996 2.96724C11.8134 2.69687 12.2402 2.35145 12.7384 2.00589C13.7848 1.28011 15.2407 0.48597 16.6573 0.50019C17.8569 0.512466 19.3814 0.922334 20.5786 1.94508C21.797 2.98586 22.6353 4.62754 22.4819 6.99848C22.444 7.58313 22.2267 8.20726 21.91 8.83399C21.591 9.46534 21.1562 10.1284 20.6525 10.7972C19.6455 12.1347 18.3354 13.5317 17.0451 14.794C15.7528 16.0584 14.4699 17.1977 13.511 18.0204C13.0313 18.4319 12.6319 18.7648 12.3522 18.9951C12.2123 19.1102 12.1023 19.1997 12.027 19.2606L11.9407 19.3302L11.9183 19.3482L11.9109 19.3541C11.9108 19.3542 11.9103 19.3546 11.5987 18.9636L11.9109 19.3541L11.8997 19.3631L11.8886 19.3709C11.793 19.439 11.6602 19.5 11.4981 19.5C11.3334 19.5 11.1969 19.4369 11.0971 19.3604L11.0896 19.3547L11.4013 18.9636C11.0897 19.3546 11.0898 19.3548 11.0896 19.3547L11.0817 19.3482L11.0592 19.3302L10.973 19.2607C10.8977 19.1998 10.7877 19.1103 10.6478 18.9951C10.368 18.7649 9.9687 18.432 9.48896 18.0205C8.53002 17.1979 7.24717 16.0586 5.95485 14.7943C4.66456 13.532 3.35448 12.1351 2.3474 10.7976C1.84378 10.1287 1.40897 9.46562 1.08996 8.83422C0.773274 8.20741 0.555962 7.58325 0.518093 6.99851C0.364684 4.62757 1.20294 2.98587 2.42118 1.9451C3.61831 0.922352 5.14249 0.512468 6.34172 0.500191C7.56686 0.487813 8.8156 1.07931 9.79523 1.69746C10.4926 2.13748 11.0909 2.6152 11.4996 2.96724ZM11.5 18.4005C11.4394 18.3512 11.3668 18.2918 11.2833 18.223C11.008 17.9965 10.614 17.668 10.14 17.2615C9.19166 16.4479 7.92612 15.3239 6.65416 14.0795C5.38016 12.8332 4.11007 11.4761 3.14627 10.1961C2.66446 9.55618 2.26614 8.94465 1.98251 8.38326C1.69656 7.8173 1.5417 7.33053 1.516 6.93391M11.5 18.4005C11.5605 18.3512 11.6331 18.2918 11.7167 18.223C11.9919 17.9964 12.386 17.668 12.8599 17.2614C13.8083 16.4478 15.0738 15.3236 16.3458 14.0792C17.6198 12.8328 18.8899 11.4757 19.8537 10.1957C20.3355 9.55584 20.7338 8.94434 21.0174 8.38301C21.3034 7.81709 21.4583 7.33041 21.4839 6.93391C21.6181 4.8611 20.8956 3.53107 19.9291 2.70542C18.9415 1.86177 17.6569 1.51049 16.6473 1.50014M10.7676 3.65713C10.3904 3.3369 9.86434 2.9235 9.26159 2.54317C8.32704 1.95347 7.28162 1.49077 6.35196 1.50014M11.6291 4.20153L9.68049 6.26299L8.95377 5.57606L10.7676 3.65713M11.6291 4.20153L11.6306 4.2L11.6526 4.17854C11.6725 4.15923 11.7027 4.13018 11.7425 4.09279C11.822 4.01798 11.9395 3.90996 12.0888 3.77988C12.3878 3.51923 12.811 3.17253 13.3084 2.82757C14.3269 2.1211 15.5615 1.48928 16.6473 1.50014M1.516 6.93391C1.38189 4.86112 2.10431 3.53105 3.07074 2.70541ZM3.07074 2.70541C4.05826 1.86174 5.34277 1.51048 6.35196 1.50014Z" fill="#222222"/>
</svg>
