<svg width="63" height="62" viewBox="0 0 63 62" fill="none" xmlns="http://www.w3.org/2000/svg">
<path d="M23.8233 22.7207H19.3282C19.3282 22.7207 17.002 22.6947 17.002 25.786V38.6745C17.002 38.6745 16.8239 41.0285 19.8078 41.0285H29.857H42.0334" stroke="#CBC7C7" stroke-width="2" stroke-miterlimit="3.8637"/>
<path d="M18.0801 17L45.9222 44.8432" stroke="#CBC7C7" stroke-width="2" stroke-miterlimit="3.8637"/>
<path d="M35.5068 34.4371C34.4548 35.8115 32.7973 36.6979 30.9327 36.6979C27.7532 36.6979 25.1758 34.1204 25.1758 30.9408C25.1758 29.0667 26.0689 27.4018 27.4575 26.3506" stroke="#CBC7C7" stroke-width="2" stroke-miterlimit="3.8637"/>
<path d="M26.6523 19.7958C26.8701 19.4859 27.0405 19.2414 27.1113 19.1351C27.4384 18.6444 28.1002 18.6823 28.1002 18.6823H31.3654H30.5628H33.828C33.828 18.6823 34.4898 18.6444 34.8169 19.1351C35.1108 19.576 37.1173 22.3959 37.1173 22.3959C37.1173 22.3959 37.334 22.7201 38.1064 22.7201C38.8787 22.7201 42.6015 22.7201 42.6015 22.7201C42.6015 22.7201 44.9277 22.6941 44.9277 25.7854C44.9277 28.8767 44.9277 38.1116 44.9277 38.1116" stroke="#CBC7C7" stroke-width="2" stroke-miterlimit="3.8637"/>
<path d="M40.6886 28.3401C41.4314 28.3401 42.0335 27.738 42.0335 26.9953C42.0335 26.2525 41.4314 25.6504 40.6886 25.6504C39.9459 25.6504 39.3438 26.2525 39.3438 26.9953C39.3438 27.738 39.9459 28.3401 40.6886 28.3401Z" fill="#BBBBBB"/>
<path d="M58.4931 43.0244L58.0351 42.8238L57.9645 42.985L58.0104 43.1548L58.4931 43.0244ZM48.1534 55.6154L48.1673 55.1156L48.0025 55.111L47.8672 55.2054L48.1534 55.6154ZM62 56L61.9861 56.4998L62.6581 56.5185L62.4827 55.8695L62 56ZM60.5 31C60.5 35.2057 59.6202 39.2046 58.0351 42.8238L58.9511 43.225C60.5905 39.4817 61.5 35.3464 61.5 31H60.5ZM31 1.5C47.2924 1.5 60.5 14.7076 60.5 31H61.5C61.5 14.1553 47.8447 0.5 31 0.5V1.5ZM1.5 31C1.5 14.7076 14.7076 1.5 31 1.5V0.5C14.1553 0.5 0.5 14.1553 0.5 31H1.5ZM31 60.5C14.7076 60.5 1.5 47.2924 1.5 31H0.5C0.5 47.8447 14.1553 61.5 31 61.5V60.5ZM47.8672 55.2054C43.0871 58.5427 37.2729 60.5 31 60.5V61.5C37.4842 61.5 43.4972 59.476 48.4397 56.0253L47.8672 55.2054ZM48.1396 56.1152L61.9861 56.4998L62.0139 55.5002L48.1673 55.1156L48.1396 56.1152ZM62.4827 55.8695L58.9758 42.8939L58.0104 43.1548L61.5173 56.1305L62.4827 55.8695Z" fill="#BBBBBB"/>
</svg>
