<svg aria-hidden="true" xmlns="http://www.w3.org/2000/svg" xmlns:xlink="http://www.w3.org/1999/xlink"><symbol viewBox="0 0 63 62" id="Group" xmlns="http://www.w3.org/2000/svg">
<path d="M23.8233 22.7207H19.3282C19.3282 22.7207 17.002 22.6947 17.002 25.786V38.6745C17.002 38.6745 16.8239 41.0285 19.8078 41.0285H29.857H42.0334" stroke-width="2" stroke-miterlimit="3.8637"/>
<path d="M18.0801 17L45.9222 44.8432" stroke-width="2" stroke-miterlimit="3.8637"/>
<path d="M35.5068 34.4371C34.4548 35.8115 32.7973 36.6979 30.9327 36.6979C27.7532 36.6979 25.1758 34.1204 25.1758 30.9408C25.1758 29.0667 26.0689 27.4018 27.4575 26.3506" stroke-width="2" stroke-miterlimit="3.8637"/>
<path d="M26.6523 19.7958C26.8701 19.4859 27.0405 19.2414 27.1113 19.1351C27.4384 18.6444 28.1002 18.6823 28.1002 18.6823H31.3654H30.5628H33.828C33.828 18.6823 34.4898 18.6444 34.8169 19.1351C35.1108 19.576 37.1173 22.3959 37.1173 22.3959C37.1173 22.3959 37.334 22.7201 38.1064 22.7201C38.8787 22.7201 42.6015 22.7201 42.6015 22.7201C42.6015 22.7201 44.9277 22.6941 44.9277 25.7854C44.9277 28.8767 44.9277 38.1116 44.9277 38.1116" stroke-width="2" stroke-miterlimit="3.8637"/>
<path d="M40.6886 28.3401C41.4314 28.3401 42.0335 27.738 42.0335 26.9953C42.0335 26.2525 41.4314 25.6504 40.6886 25.6504C39.9459 25.6504 39.3438 26.2525 39.3438 26.9953C39.3438 27.738 39.9459 28.3401 40.6886 28.3401Z"/>
<path d="M58.4931 43.0244L58.0351 42.8238L57.9645 42.985L58.0104 43.1548L58.4931 43.0244ZM48.1534 55.6154L48.1673 55.1156L48.0025 55.111L47.8672 55.2054L48.1534 55.6154ZM62 56L61.9861 56.4998L62.6581 56.5185L62.4827 55.8695L62 56ZM60.5 31C60.5 35.2057 59.6202 39.2046 58.0351 42.8238L58.9511 43.225C60.5905 39.4817 61.5 35.3464 61.5 31H60.5ZM31 1.5C47.2924 1.5 60.5 14.7076 60.5 31H61.5C61.5 14.1553 47.8447 0.5 31 0.5V1.5ZM1.5 31C1.5 14.7076 14.7076 1.5 31 1.5V0.5C14.1553 0.5 0.5 14.1553 0.5 31H1.5ZM31 60.5C14.7076 60.5 1.5 47.2924 1.5 31H0.5C0.5 47.8447 14.1553 61.5 31 61.5V60.5ZM47.8672 55.2054C43.0871 58.5427 37.2729 60.5 31 60.5V61.5C37.4842 61.5 43.4972 59.476 48.4397 56.0253L47.8672 55.2054ZM48.1396 56.1152L61.9861 56.4998L62.0139 55.5002L48.1673 55.1156L48.1396 56.1152ZM62.4827 55.8695L58.9758 42.8939L58.0104 43.1548L61.5173 56.1305L62.4827 55.8695Z"/>
</symbol><symbol viewBox="0 0 60 58" id="Rectangle_373" xmlns="http://www.w3.org/2000/svg">
<path d="M0 23C0 10.2975 10.2975 0 23 0H37C49.7025 0 60 10.2975 60 23V35C60 47.7025 49.7025 58 37 58H23C10.2975 58 0 47.7025 0 35V23Z"/>
</symbol><symbol viewBox="0 0 28 11" id="arow-swiper" xmlns="http://www.w3.org/2000/svg">
<path d="M7.48047 1.57881L1 5.32031L7.48047 9.06181L7.48047 1.57881Z"/>
<path d="M6.9985 5.55664L27.707 5.55664"/>
</symbol><symbol viewBox="0 0 20 22" id="bascet" xmlns="http://www.w3.org/2000/svg">
<path fill-rule="evenodd" clip-rule="evenodd" d="M-0.000976562 4.00195H3.73406V5.00195H0.999023V20.3598H3.67929V21.3598H-0.000976562V4.00195Z"/>
<path fill-rule="evenodd" clip-rule="evenodd" d="M8.58649 1.38086C7.40549 1.38086 6.39062 2.41682 6.39062 3.76822V5.19399L5.39062 5.19424V3.76822C5.39062 1.93028 6.78968 0.380859 8.58649 0.380859C10.3833 0.380859 11.7824 1.93028 11.7824 3.76822V5.19402L10.7824 5.19417V3.76822C10.7824 2.41682 9.76749 1.38086 8.58649 1.38086Z"/>
<path d="M3.75879 4.50195H19.499V20.8598H3.75879V4.50195Z"/>
<path fill-rule="evenodd" clip-rule="evenodd" d="M3.25879 4.00195H19.999V21.3598H3.25879V4.00195ZM4.25879 5.00195V20.3598H18.999V5.00195H4.25879Z"/>
<path fill-rule="evenodd" clip-rule="evenodd" d="M11.8218 1.38086C10.5905 1.38086 9.62598 2.336 9.62598 3.47365V6.27183L8.62598 6.27257V3.47365C8.62598 1.74733 10.0753 0.380859 11.8218 0.380859C13.5683 0.380859 15.0177 1.74733 15.0177 3.47365V6.27183L14.0177 6.27257V3.47365C14.0177 2.336 13.0532 1.38086 11.8218 1.38086Z"/>
</symbol><symbol viewBox="0 0 8 17" id="fb" xmlns="http://www.w3.org/2000/svg">
<path fill-rule="evenodd" clip-rule="evenodd" d="M5.28495 16.1219H1.82511V8.22679H0.113281V5.515H1.82511V3.88404C1.82511 1.65199 2.79595 0.330078 5.56704 0.330078H7.86153V3.05967H6.4318C5.35567 3.05967 5.28495 3.43666 5.28495 4.14131V5.51419H7.88003L7.57944 8.22679H5.28495V16.1219Z"/>
</symbol><symbol viewBox="0 0 63 62" id="foto" xmlns="http://www.w3.org/2000/svg">
<path d="M23.8233 22.7207H19.3282C19.3282 22.7207 17.002 22.6947 17.002 25.786V38.6745C17.002 38.6745 16.8239 41.0285 19.8078 41.0285H29.857H42.0334" stroke-width="2" stroke-miterlimit="3.8637"/>
<path d="M18.0801 17L45.9222 44.8432" stroke-width="2" stroke-miterlimit="3.8637"/>
<path d="M35.5068 34.4371C34.4548 35.8115 32.7973 36.6979 30.9327 36.6979C27.7532 36.6979 25.1758 34.1204 25.1758 30.9408C25.1758 29.0667 26.0689 27.4018 27.4575 26.3506" stroke-width="2" stroke-miterlimit="3.8637"/>
<path d="M26.6523 19.7958C26.8701 19.4859 27.0405 19.2414 27.1113 19.1351C27.4384 18.6444 28.1002 18.6823 28.1002 18.6823H31.3654H30.5628H33.828C33.828 18.6823 34.4898 18.6444 34.8169 19.1351C35.1108 19.576 37.1173 22.3959 37.1173 22.3959C37.1173 22.3959 37.334 22.7201 38.1064 22.7201C38.8787 22.7201 42.6015 22.7201 42.6015 22.7201C42.6015 22.7201 44.9277 22.6941 44.9277 25.7854C44.9277 28.8767 44.9277 38.1116 44.9277 38.1116" stroke-width="2" stroke-miterlimit="3.8637"/>
<path d="M40.6886 28.3401C41.4314 28.3401 42.0335 27.738 42.0335 26.9953C42.0335 26.2525 41.4314 25.6504 40.6886 25.6504C39.9459 25.6504 39.3438 26.2525 39.3438 26.9953C39.3438 27.738 39.9459 28.3401 40.6886 28.3401Z"/>
<path d="M58.4931 43.0244L58.0351 42.8238L57.9645 42.985L58.0104 43.1548L58.4931 43.0244ZM48.1534 55.6154L48.1673 55.1156L48.0025 55.111L47.8672 55.2054L48.1534 55.6154ZM62 56L61.9861 56.4998L62.6581 56.5185L62.4827 55.8695L62 56ZM60.5 31C60.5 35.2057 59.6202 39.2046 58.0351 42.8238L58.9511 43.225C60.5905 39.4817 61.5 35.3464 61.5 31H60.5ZM31 1.5C47.2924 1.5 60.5 14.7076 60.5 31H61.5C61.5 14.1553 47.8447 0.5 31 0.5V1.5ZM1.5 31C1.5 14.7076 14.7076 1.5 31 1.5V0.5C14.1553 0.5 0.5 14.1553 0.5 31H1.5ZM31 60.5C14.7076 60.5 1.5 47.2924 1.5 31H0.5C0.5 47.8447 14.1553 61.5 31 61.5V60.5ZM47.8672 55.2054C43.0871 58.5427 37.2729 60.5 31 60.5V61.5C37.4842 61.5 43.4972 59.476 48.4397 56.0253L47.8672 55.2054ZM48.1396 56.1152L61.9861 56.4998L62.0139 55.5002L48.1673 55.1156L48.1396 56.1152ZM62.4827 55.8695L58.9758 42.8939L58.0104 43.1548L61.5173 56.1305L62.4827 55.8695Z"/>
</symbol><symbol viewBox="0 0 18 19" id="intagram" xmlns="http://www.w3.org/2000/svg">
<path fill-rule="evenodd" clip-rule="evenodd" d="M5.59322 18.0494C2.52563 18.0494 0 15.5259 0 12.4346V5.61474C0 2.5227 2.52563 0 5.59322 0H12.3364C15.426 0 17.9296 2.5227 17.9296 5.61474V12.4346C17.9296 15.5259 15.426 18.0494 12.3364 18.0494H5.59322ZM1.82719 5.61556V12.4355C1.82719 14.5266 3.51827 16.2314 5.59322 16.2314H12.3364C14.4105 16.2314 16.1024 14.5266 16.1024 12.4355V5.61556C16.1024 3.52439 14.4105 1.81962 12.3364 1.81962H5.59322C3.51827 1.81962 1.82719 3.52439 1.82719 5.61556Z"/>
<path fill-rule="evenodd" clip-rule="evenodd" d="M4.30664 9.02516C4.30664 6.4336 6.40359 4.32031 8.97485 4.32031C11.5461 4.32031 13.6211 6.4336 13.6211 9.02516C13.6211 11.6159 11.5461 13.73 8.97485 13.73C6.40359 13.73 4.30664 11.6159 4.30664 9.02516ZM6.15583 9.02516C6.15583 10.5937 7.41824 11.8661 8.97485 11.8661C10.5086 11.8661 11.7719 10.5937 11.7719 9.02516C11.7719 7.4566 10.5086 6.18338 8.97485 6.18338C7.41824 6.18338 6.15583 7.4566 6.15583 9.02516Z"/>
<path fill-rule="evenodd" clip-rule="evenodd" d="M13.8469 5.52449C13.0808 5.52449 12.4492 4.88871 12.4492 4.11594C12.4492 3.31937 13.0808 2.68359 13.8469 2.68359C14.6138 2.68359 15.2454 3.31937 15.2454 4.11594C15.2454 4.88871 14.6138 5.52449 13.8469 5.52449Z"/>
</symbol><symbol viewBox="0 0 25 21" id="like" xmlns="http://www.w3.org/2000/svg">
<path d="M12.5769 4.24603C11.8813 3.62026 9.21613 1.37173 6.85609 1.39471C4.43734 1.41857 0.70379 3.00156 1.0187 7.69219C1.29714 11.8357 12.3919 20.3561 12.3919 20.3561C12.4613 20.4073 12.5334 20.4073 12.6081 20.3561C12.6081 20.3561 23.7029 11.8348 23.9813 7.69219C24.2962 3.00156 20.5627 1.41857 18.143 1.39471C15.4022 1.36819 12.2496 4.40512 12.2496 4.40512L10.1093 6.58736" stroke-miterlimit="3.8637"/>
</symbol><symbol viewBox="0 0 25 21" id="like-black" xmlns="http://www.w3.org/2000/svg">
<path fill-rule="evenodd" clip-rule="evenodd" d="M12.4995 3.5179C12.8457 3.22878 13.3263 2.85156 13.8906 2.4743C15.0365 1.70825 16.6178 0.879926 18.1478 0.894729C19.4482 0.907554 21.104 1.33598 22.4054 2.4074C23.7296 3.4976 24.6481 5.22376 24.4802 7.72568C24.4388 8.34098 24.2015 8.99793 23.8555 9.6579C23.5069 10.3228 23.0316 11.0214 22.4808 11.7264C21.3792 13.1364 19.9457 14.6096 18.5333 15.9414C17.1187 17.2752 15.7144 18.4773 14.6646 19.3452C14.1394 19.7795 13.7023 20.1307 13.3961 20.3736C13.243 20.495 13.1226 20.5894 13.0402 20.6537L12.9459 20.727L12.9214 20.7459L12.9133 20.7521C12.9132 20.7522 12.9126 20.7526 12.6081 20.3561L12.9133 20.7521L12.902 20.7608L12.8909 20.7684C12.7918 20.8364 12.6583 20.8945 12.498 20.8945C12.3352 20.8945 12.1981 20.8345 12.0948 20.7582L12.0873 20.7527L12.3919 20.3561C12.0874 20.7526 12.0874 20.7528 12.0873 20.7527L12.0786 20.7459L12.0541 20.727L11.9598 20.6537C11.8774 20.5895 11.757 20.4951 11.6039 20.3736C11.2977 20.1307 10.8606 19.7796 10.3354 19.3454C9.28559 18.4775 7.88128 17.2755 6.46669 15.9417C5.05424 14.61 3.62078 13.1368 2.5192 11.7268C1.96834 11.0217 1.49306 10.3231 1.14447 9.65813C0.798459 8.99809 0.561155 8.34111 0.519802 7.72571C0.351833 5.22379 1.27037 3.49761 2.59443 2.40741C3.89569 1.33599 5.55116 0.907555 6.85114 0.89473C8.17366 0.881852 9.5289 1.49823 10.6004 2.14988C11.3836 2.62615 12.0526 3.14461 12.4995 3.5179ZM12.5 19.8067C12.573 19.7495 12.6652 19.6769 12.7746 19.5901C13.0762 19.3508 13.5081 19.0039 14.0274 18.5746C15.0665 17.7154 16.4533 16.5282 17.8472 15.2138C19.2433 13.8975 20.6357 12.4637 21.6927 11.1108C22.2212 10.4344 22.6584 9.78761 22.9698 9.19356C23.2838 8.59459 23.4541 8.07901 23.4824 7.65865C23.6293 5.46997 22.8386 4.05933 21.7698 3.17942C20.6782 2.28075 19.2574 1.90574 18.1382 1.89468M12.5 19.8067C12.4269 19.7495 12.3347 19.6769 12.2253 19.5902C11.9237 19.3509 11.4919 19.004 10.9726 18.5747C9.93341 17.7155 8.54662 16.5284 7.15271 15.2142C5.75666 13.8979 4.36421 12.4641 3.30722 11.1111C2.77878 10.4348 2.3416 9.78794 2.03015 9.19383C1.71613 8.59483 1.54582 8.07917 1.51755 7.65869M11.7526 4.19776C11.3371 3.85688 10.7524 3.41269 10.0808 3.00429C9.05591 2.38099 7.89851 1.8846 6.861 1.89468M12.6008 4.76105L10.4662 6.93747L9.75228 6.23726L11.7526 4.19776M12.6008 4.76105L12.603 4.75894L12.6273 4.73608C12.6492 4.71557 12.6825 4.68476 12.7262 4.64514C12.8136 4.56588 12.9427 4.45152 13.1066 4.31384C13.4349 4.03801 13.8999 3.67098 14.4464 3.30564C15.562 2.55987 16.9274 1.883 18.1382 1.89468M1.51755 7.65869C1.37062 5.47 2.16139 4.05932 3.23007 3.1794L1.51755 7.65869ZM3.23007 3.1794C4.32152 2.28072 5.74223 1.90573 6.861 1.89468L3.23007 3.1794Z"/>
</symbol><symbol viewBox="0 0 44 49" id="show-room" xmlns="http://www.w3.org/2000/svg">
<path fill-rule="evenodd" clip-rule="evenodd" d="M21.8875 2C20.7437 2 19.8164 2.92718 19.8164 4.07109C19.8164 4.62338 19.3687 5.07109 18.8164 5.07109C18.2641 5.07109 17.8164 4.62338 17.8164 4.07109C17.8164 1.8225 19.6393 0 21.8875 0C24.136 0 25.9588 1.82275 25.9588 4.07109C25.9588 5.24052 25.45 6.27921 24.7082 7.007C24.7023 7.01282 24.6963 7.01857 24.6902 7.02424C24.532 7.1719 24.3125 7.32752 24.1548 7.43929C24.1135 7.46859 24.0764 7.49488 24.0458 7.51722C23.8546 7.65679 23.689 7.79178 23.5441 7.95696C23.285 8.25241 22.9995 8.74779 22.9995 9.75984C22.9995 10.3121 22.5518 10.7598 21.9995 10.7598C21.4472 10.7598 20.9995 10.3121 20.9995 9.75984C20.9995 8.30204 21.4363 7.32713 22.0405 6.63824C22.3273 6.31125 22.6286 6.07555 22.8667 5.90172C22.967 5.82854 23.0436 5.77417 23.1043 5.73103C23.2088 5.65683 23.2665 5.61588 23.3174 5.56968C23.7102 5.17948 23.9588 4.64502 23.9588 4.07109C23.9588 2.92743 23.0315 2 21.8875 2Z"/>
<path fill-rule="evenodd" clip-rule="evenodd" d="M21.7137 8.81109C21.9193 8.74256 22.1416 8.74266 22.3471 8.81136L38.5445 14.2265C39.0683 14.4017 39.351 14.9682 39.1758 15.492C39.0007 16.0158 38.4342 16.2985 37.9104 16.1234L22.0295 10.814L6.10167 16.1236C5.57773 16.2983 5.01141 16.0151 4.83675 15.4912C4.66209 14.9673 4.94524 14.4009 5.46918 14.2263L21.7137 8.81109Z"/>
<path fill-rule="evenodd" clip-rule="evenodd" d="M3.05364 13.3291C3.40609 12.9056 4.03451 12.8471 4.45899 13.1977L4.46343 13.2012C4.46913 13.2058 4.48007 13.2145 4.4963 13.227C4.52877 13.252 4.58243 13.2924 4.65777 13.346C4.80846 13.4531 5.04595 13.613 5.37429 13.8085C6.03081 14.1993 7.0515 14.7328 8.46911 15.2705C11.302 16.3452 15.7343 17.4423 22.0327 17.4423C28.3309 17.4423 32.7544 16.3452 35.5784 15.2709C36.9916 14.7333 38.0079 14.2 38.661 13.8095C38.9876 13.6142 39.2237 13.4544 39.3734 13.3474C39.4482 13.2939 39.5014 13.2537 39.5336 13.2287C39.5497 13.2162 39.5605 13.2076 39.5661 13.2031L39.5674 13.2021C39.5677 13.2018 39.568 13.2016 39.5683 13.2014C39.5685 13.2012 39.5687 13.201 39.569 13.2008C39.5693 13.2005 39.5697 13.2002 39.57 13.1999C39.5702 13.1998 39.5704 13.1996 39.5706 13.1995C39.994 12.8478 40.6224 12.9044 40.9761 13.3268C41.3307 13.7502 41.2749 14.3809 40.8515 14.7355L40.2094 13.9688C40.8515 14.7355 40.851 14.7359 40.8505 14.7363L40.8494 14.7372L40.8469 14.7392L40.8404 14.7446L40.8213 14.7601C40.806 14.7725 40.7852 14.789 40.759 14.8093C40.7067 14.8499 40.6326 14.9057 40.5363 14.9746C40.3437 15.1122 40.0621 15.302 39.6874 15.526C38.9378 15.9743 37.8163 16.5594 36.2896 17.1402C33.2338 18.3026 28.5689 19.4423 22.0327 19.4423C15.4963 19.4423 10.8233 18.3026 7.75976 17.1405C6.22913 16.5599 5.10374 15.975 4.35125 15.527C3.97509 15.3031 3.69234 15.1135 3.49891 14.976C3.4022 14.9073 3.32783 14.8515 3.27529 14.811C3.24901 14.7908 3.2282 14.7743 3.21278 14.762L3.19368 14.7465L3.18715 14.7412L3.18464 14.7391L3.18357 14.7382C3.18309 14.7378 3.18263 14.7374 3.82229 13.9688L3.18263 14.7374C2.75811 14.3842 2.70036 13.7536 3.05364 13.3291Z"/>
<path fill-rule="evenodd" clip-rule="evenodd" d="M39.6153 13.0528C40.0932 12.776 40.7051 12.939 40.9819 13.4169C42.6976 16.379 43.714 19.3371 43.9955 22.2858C44.034 22.689 43.8255 23.0756 43.4675 23.2649L38.9188 25.6701C38.5937 25.842 38.2005 25.8216 37.8949 25.6169L35.8577 24.2525C35.8369 24.275 35.8156 24.2983 35.7938 24.3225C35.425 24.7315 34.9217 25.3772 34.426 26.2925C33.4388 28.115 32.4606 31.0441 32.6709 35.371C32.8916 39.9109 32.7883 42.6645 32.6224 44.3033C32.5393 45.1238 32.4396 45.6736 32.3537 46.0339C32.3107 46.2145 32.2705 46.3498 32.2367 46.4492C32.2198 46.499 32.2043 46.5402 32.1907 46.5739C32.1839 46.5908 32.1775 46.6059 32.1716 46.6192L32.1632 46.6381L32.1592 46.6466L32.1573 46.6506L32.1564 46.6526C32.1559 46.6536 32.1554 46.6545 31.254 46.2216L32.1554 46.6545C32.0817 46.8081 31.9699 46.9403 31.8307 47.0386C31.5206 47.2575 31.1132 47.397 30.7531 47.4962C30.3648 47.6031 29.9098 47.6944 29.4277 47.7733C28.4615 47.9315 27.3146 48.0517 26.2275 48.1418C25.1367 48.2322 24.0888 48.2937 23.3148 48.3326C22.9274 48.3521 22.6077 48.366 22.3844 48.375C22.2728 48.3795 22.1852 48.3828 22.1252 48.385L22.0565 48.3874L22.0385 48.388L22.0337 48.3882L22.0324 48.3882C22.0323 48.3882 22.0318 48.3882 21.9991 47.3888C21.9665 48.3882 21.9664 48.3882 21.9663 48.3882L21.9598 48.388L21.9418 48.3874L21.8731 48.385C21.8131 48.3828 21.7255 48.3795 21.6139 48.375C21.3907 48.366 21.071 48.3521 20.6837 48.3326C19.9099 48.2937 18.8622 48.2322 17.7716 48.1418C16.6847 48.0516 15.538 47.9315 14.5721 47.7733C14.09 47.6944 13.6351 47.6031 13.2468 47.4961C12.8867 47.3969 12.4794 47.2575 12.1694 47.0386C12.0302 46.9403 11.9184 46.8081 11.8446 46.6545L12.746 46.2216C11.8446 46.6545 11.8441 46.6536 11.8437 46.6526L11.8427 46.6506L11.8408 46.6466L11.8369 46.6381L11.8284 46.6192C11.8225 46.6059 11.8161 46.5908 11.8093 46.5739C11.7957 46.5402 11.7802 46.499 11.7633 46.4492C11.7295 46.3498 11.6894 46.2145 11.6463 46.0339C11.5604 45.6736 11.4608 45.1238 11.3777 44.3033C11.2117 42.6645 11.1084 39.9109 11.3291 35.371C11.5385 31.0634 10.4601 28.1474 9.37379 26.3291C8.82775 25.415 8.27368 24.7684 7.86564 24.3569C7.83799 24.329 7.81102 24.3022 7.78477 24.2765L6.17376 25.5666C5.86272 25.8157 5.43349 25.8564 5.08122 25.6701L0.532571 23.2649C0.174543 23.0756 -0.0339441 22.689 0.00454609 22.2858C0.286038 19.3373 1.30244 16.379 3.01844 13.4169C3.29528 12.939 3.90711 12.776 4.385 13.0528C4.86288 13.3297 5.02586 13.9415 4.74902 14.4194C3.28518 16.9463 2.40195 19.4107 2.07217 21.8166L5.43588 23.5953L7.18273 22.1963C7.52751 21.9202 8.01259 21.903 8.37606 22.154L7.80783 22.9768C8.37606 22.154 8.37659 22.1543 8.37714 22.1547L8.37834 22.1556L8.38107 22.1575L8.38789 22.1622L8.40683 22.1758C8.42179 22.1865 8.44133 22.2009 8.46514 22.2188C8.51276 22.2547 8.5775 22.3051 8.65673 22.3705C8.81516 22.5013 9.03186 22.6925 9.28586 22.9487C9.79383 23.461 10.452 24.2341 11.0908 25.3034C12.3741 27.4517 13.5557 30.7571 13.3267 35.4681C13.109 39.9468 13.2148 42.5942 13.3675 44.1018C13.4379 44.797 13.5175 45.2422 13.5773 45.5078C13.6359 45.5271 13.7026 45.5472 13.778 45.568C14.0713 45.6488 14.4497 45.7266 14.8953 45.7996C15.7847 45.9453 16.871 46.0602 17.9369 46.1486C18.999 46.2366 20.0238 46.2969 20.7842 46.3352C21.164 46.3543 21.477 46.3678 21.6946 46.3766C21.7635 46.3794 21.8229 46.3817 21.8718 46.3835C21.8999 46.3846 21.9246 46.3855 21.9456 46.3863L21.9991 46.3882L22.0527 46.3863C22.1101 46.3842 22.195 46.381 22.3038 46.3766C22.5214 46.3678 22.8345 46.3543 23.2144 46.3352C23.975 46.2969 24.9999 46.2366 26.0623 46.1486C27.1284 46.0602 28.2149 45.9453 29.1045 45.7996C29.5502 45.7266 29.9286 45.6488 30.222 45.568C30.2974 45.5472 30.3642 45.527 30.4227 45.5078C30.4825 45.2422 30.5622 44.797 30.6326 44.1018C30.7852 42.5942 30.891 39.9468 30.6733 35.4681C30.4452 30.7764 31.506 27.4841 32.6674 25.3399C33.2459 24.2719 33.8444 23.4979 34.3086 22.9831C34.5406 22.7257 34.7392 22.5332 34.885 22.4009C34.9579 22.3348 35.0177 22.2837 35.062 22.247C35.0841 22.2287 35.1023 22.214 35.1164 22.2029L35.1344 22.1888L35.141 22.1837L35.1436 22.1817L35.1448 22.1808C35.1454 22.1804 35.1459 22.18 35.75 22.9768L35.1459 22.18C35.4859 21.9222 35.952 21.9085 36.3065 22.146L38.5118 23.623L41.9279 21.8166C41.5981 19.4105 40.7149 16.9463 39.2512 14.4193C38.9744 13.9414 39.1374 13.3296 39.6153 13.0528ZM7.23725 23.7981C7.23536 23.7968 7.23458 23.7962 7.23496 23.7965L7.2364 23.7975L7.23725 23.7981ZM21.9991 47.3888L21.9663 48.3882C21.988 48.3889 22.0106 48.3889 22.0324 48.3882L21.9991 47.3888Z"/>
<path fill-rule="evenodd" clip-rule="evenodd" d="M22.0004 26.2832C22.1145 26.2832 22.207 26.1907 22.207 26.0766C22.207 25.9625 22.1145 25.87 22.0004 25.87C21.8863 25.87 21.7938 25.9625 21.7938 26.0766C21.7938 26.1907 21.8863 26.2832 22.0004 26.2832ZM20.207 26.0766C20.207 25.0861 21.01 24.2832 22.0004 24.2832C22.9909 24.2832 23.7938 25.0861 23.7938 26.0766C23.7938 27.0671 22.9909 27.87 22.0004 27.87C21.01 27.87 20.207 27.0671 20.207 26.0766Z"/>
<path fill-rule="evenodd" clip-rule="evenodd" d="M22.0004 31.8652C22.1145 31.8652 22.207 31.7727 22.207 31.6586C22.207 31.5445 22.1145 31.452 22.0004 31.452C21.8863 31.452 21.7938 31.5445 21.7938 31.6586C21.7938 31.7727 21.8863 31.8652 22.0004 31.8652ZM20.207 31.6586C20.207 30.6682 21.01 29.8652 22.0004 29.8652C22.9909 29.8652 23.7938 30.6682 23.7938 31.6586C23.7938 32.6491 22.9909 33.452 22.0004 33.452C21.01 33.452 20.207 32.6491 20.207 31.6586Z"/>
</symbol><symbol viewBox="0 0 19 11" id="vk" xmlns="http://www.w3.org/2000/svg">
<path fill-rule="evenodd" clip-rule="evenodd" d="M10.232 10.6699C10.232 10.6699 10.5674 10.6315 10.7351 10.46C10.9028 10.2876 10.8842 9.96063 10.8842 9.96063C10.8842 9.96063 10.8656 8.44927 11.555 8.23847C12.2445 8.00801 13.1202 9.69356 14.0519 10.3251C14.76 10.8235 15.3004 10.7083 15.3004 10.7083L17.7787 10.6699C17.7787 10.6699 19.0831 10.5939 18.4681 9.55957C18.4122 9.48275 18.1141 8.79406 16.6225 7.39614C15.0573 5.94105 15.2622 6.17151 17.1443 3.6624C18.2809 2.11262 18.7468 1.17472 18.5977 0.77187C18.4672 0.389563 17.6287 0.486031 17.6287 0.486031L14.815 0.504789C14.815 0.504789 14.6109 0.486032 14.4619 0.580716C14.3128 0.657534 14.2196 0.867445 14.2196 0.867445C14.2196 0.867445 13.7724 2.07332 13.1761 3.08804C11.9277 5.21306 11.4432 5.32829 11.2382 5.19341C10.7538 4.88703 10.8656 3.94913 10.8656 3.29885C10.8656 1.21224 11.1823 0.350259 10.2693 0.139454C9.97114 0.0626357 9.74753 0.00546867 8.96491 0.00546867C7.95869 -0.0132894 7.12017 0.00546817 6.63569 0.235924C6.31891 0.40832 6.07668 0.752218 6.22575 0.77187C6.41209 0.790628 6.82203 0.887096 7.04564 1.19348C7.32514 1.57668 7.32514 2.47706 7.32514 2.47706C7.32514 2.47706 7.49285 4.90847 6.93383 5.21395C6.56116 5.42476 6.03941 4.9835 4.92138 3.05053C4.36237 2.05546 3.93379 0.963915 3.93379 0.963915C3.93379 0.963915 3.84063 0.753111 3.69156 0.657535C3.52385 0.523549 3.26298 0.465488 3.26298 0.465488L0.598352 0.485139C0.598352 0.485139 0.207042 0.503896 0.0579717 0.675398C-0.0724647 0.829036 0.0579717 1.15507 0.0579717 1.15507C0.0579717 1.15507 2.12632 6.07504 4.49281 8.54395C6.65522 10.8226 9.11399 10.669 9.11399 10.669H10.232V10.6699Z"/>
</symbol></svg>