<svg width="21" height="18" viewBox="0 0 21 18" fill="none" xmlns="http://www.w3.org/2000/svg">
<g clip-path="url(#clip0_506_58)">
<rect width="21" height="18" fill="white"/>
<path fill-rule="evenodd" clip-rule="evenodd" d="M10.5636 3.40126C9.9889 2.8743 7.78724 0.980795 5.83764 1.00015C3.83954 1.02024 0.755305 2.35329 1.01545 6.30329C1.24546 9.79257 10.4107 16.9676 10.4107 16.9676C10.468 17.0108 10.5276 17.0108 10.5893 16.9676C10.5893 16.9676 19.7545 9.79182 19.9846 6.30329C20.2447 2.35329 17.1605 1.02024 15.1616 1.00015C12.8975 0.977818 10.2931 3.53523 10.2931 3.53523L8.52505 5.37291" fill="#D7BCA3"/>
<path d="M10.5636 3.40126C9.9889 2.8743 7.78724 0.980795 5.83764 1.00015C3.83954 1.02024 0.755305 2.35329 1.01545 6.30329C1.24546 9.79257 10.4107 16.9676 10.4107 16.9676C10.468 17.0108 10.5276 17.0108 10.5893 16.9676C10.5893 16.9676 19.7545 9.79182 19.9846 6.30329C20.2447 2.35329 17.1605 1.02024 15.1616 1.00015C12.8975 0.977818 10.2931 3.53523 10.2931 3.53523L8.52505 5.37291" stroke="#D7BCA3" stroke-width="2" stroke-miterlimit="3.8637"/>
</g>
<defs>
<clipPath id="clip0_506_58">
<rect width="21" height="18" fill="white"/>
</clipPath>
</defs>
</svg>
