<svg width="25" height="21" viewBox="0 0 25 21" fill="none" xmlns="http://www.w3.org/2000/svg">
<path fill-rule="evenodd" clip-rule="evenodd" d="M12.4995 3.5179C12.8457 3.22878 13.3263 2.85156 13.8906 2.4743C15.0365 1.70825 16.6178 0.879926 18.1478 0.894729C19.4482 0.907554 21.104 1.33598 22.4054 2.4074C23.7296 3.4976 24.6481 5.22376 24.4802 7.72568C24.4388 8.34098 24.2015 8.99793 23.8555 9.6579C23.5069 10.3228 23.0316 11.0214 22.4808 11.7264C21.3792 13.1364 19.9457 14.6096 18.5333 15.9414C17.1187 17.2752 15.7144 18.4773 14.6646 19.3452C14.1394 19.7795 13.7023 20.1307 13.3961 20.3736C13.243 20.495 13.1226 20.5894 13.0402 20.6537L12.9459 20.727L12.9214 20.7459L12.9133 20.7521C12.9132 20.7522 12.9126 20.7526 12.6081 20.3561L12.9133 20.7521L12.902 20.7608L12.8909 20.7684C12.7918 20.8364 12.6583 20.8945 12.498 20.8945C12.3352 20.8945 12.1981 20.8345 12.0948 20.7582L12.0873 20.7527L12.3919 20.3561C12.0874 20.7526 12.0874 20.7528 12.0873 20.7527L12.0786 20.7459L12.0541 20.727L11.9598 20.6537C11.8774 20.5895 11.757 20.4951 11.6039 20.3736C11.2977 20.1307 10.8606 19.7796 10.3354 19.3454C9.28559 18.4775 7.88128 17.2755 6.46669 15.9417C5.05424 14.61 3.62078 13.1368 2.5192 11.7268C1.96834 11.0217 1.49306 10.3231 1.14447 9.65813C0.798459 8.99809 0.561155 8.34111 0.519802 7.72571C0.351833 5.22379 1.27037 3.49761 2.59443 2.40741C3.89569 1.33599 5.55116 0.907555 6.85114 0.89473C8.17366 0.881852 9.5289 1.49823 10.6004 2.14988C11.3836 2.62615 12.0526 3.14461 12.4995 3.5179ZM12.5 19.8067C12.573 19.7495 12.6652 19.6769 12.7746 19.5901C13.0762 19.3508 13.5081 19.0039 14.0274 18.5746C15.0665 17.7154 16.4533 16.5282 17.8472 15.2138C19.2433 13.8975 20.6357 12.4637 21.6927 11.1108C22.2212 10.4344 22.6584 9.78761 22.9698 9.19356C23.2838 8.59459 23.4541 8.07901 23.4824 7.65865C23.6293 5.46997 22.8386 4.05933 21.7698 3.17942C20.6782 2.28075 19.2574 1.90574 18.1382 1.89468M12.5 19.8067C12.4269 19.7495 12.3347 19.6769 12.2253 19.5902C11.9237 19.3509 11.4919 19.004 10.9726 18.5747C9.93341 17.7155 8.54662 16.5284 7.15271 15.2142C5.75666 13.8979 4.36421 12.4641 3.30722 11.1111C2.77878 10.4348 2.3416 9.78794 2.03015 9.19383C1.71613 8.59483 1.54582 8.07917 1.51755 7.65869M11.7526 4.19776C11.3371 3.85688 10.7524 3.41269 10.0808 3.00429C9.05591 2.38099 7.89851 1.8846 6.861 1.89468M12.6008 4.76105L10.4662 6.93747L9.75228 6.23726L11.7526 4.19776M12.6008 4.76105L12.603 4.75894L12.6273 4.73608C12.6492 4.71557 12.6825 4.68476 12.7262 4.64514C12.8136 4.56588 12.9427 4.45152 13.1066 4.31384C13.4349 4.03801 13.8999 3.67098 14.4464 3.30564C15.562 2.55987 16.9274 1.883 18.1382 1.89468M1.51755 7.65869C1.37062 5.47 2.16139 4.05932 3.23007 3.1794L1.51755 7.65869ZM3.23007 3.1794C4.32152 2.28072 5.74223 1.90573 6.861 1.89468L3.23007 3.1794Z" fill="#333333"/>
</svg>
