<svg width="44" height="49" viewBox="0 0 44 49" fill="none" xmlns="http://www.w3.org/2000/svg">
<path fill-rule="evenodd" clip-rule="evenodd" d="M21.8875 2C20.7437 2 19.8164 2.92718 19.8164 4.07109C19.8164 4.62338 19.3687 5.07109 18.8164 5.07109C18.2641 5.07109 17.8164 4.62338 17.8164 4.07109C17.8164 1.8225 19.6393 0 21.8875 0C24.136 0 25.9588 1.82275 25.9588 4.07109C25.9588 5.24052 25.45 6.27921 24.7082 7.007C24.7023 7.01282 24.6963 7.01857 24.6902 7.02424C24.532 7.1719 24.3125 7.32752 24.1548 7.43929C24.1135 7.46859 24.0764 7.49488 24.0458 7.51722C23.8546 7.65679 23.689 7.79178 23.5441 7.95696C23.285 8.25241 22.9995 8.74779 22.9995 9.75984C22.9995 10.3121 22.5518 10.7598 21.9995 10.7598C21.4472 10.7598 20.9995 10.3121 20.9995 9.75984C20.9995 8.30204 21.4363 7.32713 22.0405 6.63824C22.3273 6.31125 22.6286 6.07555 22.8667 5.90172C22.967 5.82854 23.0436 5.77417 23.1043 5.73103C23.2088 5.65683 23.2665 5.61588 23.3174 5.56968C23.7102 5.17948 23.9588 4.64502 23.9588 4.07109C23.9588 2.92743 23.0315 2 21.8875 2Z" fill="#C0A78F"/>
<path fill-rule="evenodd" clip-rule="evenodd" d="M21.7137 8.81109C21.9193 8.74256 22.1416 8.74266 22.3471 8.81136L38.5445 14.2265C39.0683 14.4017 39.351 14.9682 39.1758 15.492C39.0007 16.0158 38.4342 16.2985 37.9104 16.1234L22.0295 10.814L6.10167 16.1236C5.57773 16.2983 5.01141 16.0151 4.83675 15.4912C4.66209 14.9673 4.94524 14.4009 5.46918 14.2263L21.7137 8.81109Z" fill="#C0A78F"/>
<path fill-rule="evenodd" clip-rule="evenodd" d="M3.05364 13.3291C3.40609 12.9056 4.03451 12.8471 4.45899 13.1977L4.46343 13.2012C4.46913 13.2058 4.48007 13.2145 4.4963 13.227C4.52877 13.252 4.58243 13.2924 4.65777 13.346C4.80846 13.4531 5.04595 13.613 5.37429 13.8085C6.03081 14.1993 7.0515 14.7328 8.46911 15.2705C11.302 16.3452 15.7343 17.4423 22.0327 17.4423C28.3309 17.4423 32.7544 16.3452 35.5784 15.2709C36.9916 14.7333 38.0079 14.2 38.661 13.8095C38.9876 13.6142 39.2237 13.4544 39.3734 13.3474C39.4482 13.2939 39.5014 13.2537 39.5336 13.2287C39.5497 13.2162 39.5605 13.2076 39.5661 13.2031L39.5674 13.2021C39.5677 13.2018 39.568 13.2016 39.5683 13.2014C39.5685 13.2012 39.5687 13.201 39.569 13.2008C39.5693 13.2005 39.5697 13.2002 39.57 13.1999C39.5702 13.1998 39.5704 13.1996 39.5706 13.1995C39.994 12.8478 40.6224 12.9044 40.9761 13.3268C41.3307 13.7502 41.2749 14.3809 40.8515 14.7355L40.2094 13.9688C40.8515 14.7355 40.851 14.7359 40.8505 14.7363L40.8494 14.7372L40.8469 14.7392L40.8404 14.7446L40.8213 14.7601C40.806 14.7725 40.7852 14.789 40.759 14.8093C40.7067 14.8499 40.6326 14.9057 40.5363 14.9746C40.3437 15.1122 40.0621 15.302 39.6874 15.526C38.9378 15.9743 37.8163 16.5594 36.2896 17.1402C33.2338 18.3026 28.5689 19.4423 22.0327 19.4423C15.4963 19.4423 10.8233 18.3026 7.75976 17.1405C6.22913 16.5599 5.10374 15.975 4.35125 15.527C3.97509 15.3031 3.69234 15.1135 3.49891 14.976C3.4022 14.9073 3.32783 14.8515 3.27529 14.811C3.24901 14.7908 3.2282 14.7743 3.21278 14.762L3.19368 14.7465L3.18715 14.7412L3.18464 14.7391L3.18357 14.7382C3.18309 14.7378 3.18263 14.7374 3.82229 13.9688L3.18263 14.7374C2.75811 14.3842 2.70036 13.7536 3.05364 13.3291Z" fill="#C0A78F"/>
<path fill-rule="evenodd" clip-rule="evenodd" d="M39.6153 13.0528C40.0932 12.776 40.7051 12.939 40.9819 13.4169C42.6976 16.379 43.714 19.3371 43.9955 22.2858C44.034 22.689 43.8255 23.0756 43.4675 23.2649L38.9188 25.6701C38.5937 25.842 38.2005 25.8216 37.8949 25.6169L35.8577 24.2525C35.8369 24.275 35.8156 24.2983 35.7938 24.3225C35.425 24.7315 34.9217 25.3772 34.426 26.2925C33.4388 28.115 32.4606 31.0441 32.6709 35.371C32.8916 39.9109 32.7883 42.6645 32.6224 44.3033C32.5393 45.1238 32.4396 45.6736 32.3537 46.0339C32.3107 46.2145 32.2705 46.3498 32.2367 46.4492C32.2198 46.499 32.2043 46.5402 32.1907 46.5739C32.1839 46.5908 32.1775 46.6059 32.1716 46.6192L32.1632 46.6381L32.1592 46.6466L32.1573 46.6506L32.1564 46.6526C32.1559 46.6536 32.1554 46.6545 31.254 46.2216L32.1554 46.6545C32.0817 46.8081 31.9699 46.9403 31.8307 47.0386C31.5206 47.2575 31.1132 47.397 30.7531 47.4962C30.3648 47.6031 29.9098 47.6944 29.4277 47.7733C28.4615 47.9315 27.3146 48.0517 26.2275 48.1418C25.1367 48.2322 24.0888 48.2937 23.3148 48.3326C22.9274 48.3521 22.6077 48.366 22.3844 48.375C22.2728 48.3795 22.1852 48.3828 22.1252 48.385L22.0565 48.3874L22.0385 48.388L22.0337 48.3882L22.0324 48.3882C22.0323 48.3882 22.0318 48.3882 21.9991 47.3888C21.9665 48.3882 21.9664 48.3882 21.9663 48.3882L21.9598 48.388L21.9418 48.3874L21.8731 48.385C21.8131 48.3828 21.7255 48.3795 21.6139 48.375C21.3907 48.366 21.071 48.3521 20.6837 48.3326C19.9099 48.2937 18.8622 48.2322 17.7716 48.1418C16.6847 48.0516 15.538 47.9315 14.5721 47.7733C14.09 47.6944 13.6351 47.6031 13.2468 47.4961C12.8867 47.3969 12.4794 47.2575 12.1694 47.0386C12.0302 46.9403 11.9184 46.8081 11.8446 46.6545L12.746 46.2216C11.8446 46.6545 11.8441 46.6536 11.8437 46.6526L11.8427 46.6506L11.8408 46.6466L11.8369 46.6381L11.8284 46.6192C11.8225 46.6059 11.8161 46.5908 11.8093 46.5739C11.7957 46.5402 11.7802 46.499 11.7633 46.4492C11.7295 46.3498 11.6894 46.2145 11.6463 46.0339C11.5604 45.6736 11.4608 45.1238 11.3777 44.3033C11.2117 42.6645 11.1084 39.9109 11.3291 35.371C11.5385 31.0634 10.4601 28.1474 9.37379 26.3291C8.82775 25.415 8.27368 24.7684 7.86564 24.3569C7.83799 24.329 7.81102 24.3022 7.78477 24.2765L6.17376 25.5666C5.86272 25.8157 5.43349 25.8564 5.08122 25.6701L0.532571 23.2649C0.174543 23.0756 -0.0339441 22.689 0.00454609 22.2858C0.286038 19.3373 1.30244 16.379 3.01844 13.4169C3.29528 12.939 3.90711 12.776 4.385 13.0528C4.86288 13.3297 5.02586 13.9415 4.74902 14.4194C3.28518 16.9463 2.40195 19.4107 2.07217 21.8166L5.43588 23.5953L7.18273 22.1963C7.52751 21.9202 8.01259 21.903 8.37606 22.154L7.80783 22.9768C8.37606 22.154 8.37659 22.1543 8.37714 22.1547L8.37834 22.1556L8.38107 22.1575L8.38789 22.1622L8.40683 22.1758C8.42179 22.1865 8.44133 22.2009 8.46514 22.2188C8.51276 22.2547 8.5775 22.3051 8.65673 22.3705C8.81516 22.5013 9.03186 22.6925 9.28586 22.9487C9.79383 23.461 10.452 24.2341 11.0908 25.3034C12.3741 27.4517 13.5557 30.7571 13.3267 35.4681C13.109 39.9468 13.2148 42.5942 13.3675 44.1018C13.4379 44.797 13.5175 45.2422 13.5773 45.5078C13.6359 45.5271 13.7026 45.5472 13.778 45.568C14.0713 45.6488 14.4497 45.7266 14.8953 45.7996C15.7847 45.9453 16.871 46.0602 17.9369 46.1486C18.999 46.2366 20.0238 46.2969 20.7842 46.3352C21.164 46.3543 21.477 46.3678 21.6946 46.3766C21.7635 46.3794 21.8229 46.3817 21.8718 46.3835C21.8999 46.3846 21.9246 46.3855 21.9456 46.3863L21.9991 46.3882L22.0527 46.3863C22.1101 46.3842 22.195 46.381 22.3038 46.3766C22.5214 46.3678 22.8345 46.3543 23.2144 46.3352C23.975 46.2969 24.9999 46.2366 26.0623 46.1486C27.1284 46.0602 28.2149 45.9453 29.1045 45.7996C29.5502 45.7266 29.9286 45.6488 30.222 45.568C30.2974 45.5472 30.3642 45.527 30.4227 45.5078C30.4825 45.2422 30.5622 44.797 30.6326 44.1018C30.7852 42.5942 30.891 39.9468 30.6733 35.4681C30.4452 30.7764 31.506 27.4841 32.6674 25.3399C33.2459 24.2719 33.8444 23.4979 34.3086 22.9831C34.5406 22.7257 34.7392 22.5332 34.885 22.4009C34.9579 22.3348 35.0177 22.2837 35.062 22.247C35.0841 22.2287 35.1023 22.214 35.1164 22.2029L35.1344 22.1888L35.141 22.1837L35.1436 22.1817L35.1448 22.1808C35.1454 22.1804 35.1459 22.18 35.75 22.9768L35.1459 22.18C35.4859 21.9222 35.952 21.9085 36.3065 22.146L38.5118 23.623L41.9279 21.8166C41.5981 19.4105 40.7149 16.9463 39.2512 14.4193C38.9744 13.9414 39.1374 13.3296 39.6153 13.0528ZM7.23725 23.7981C7.23536 23.7968 7.23458 23.7962 7.23496 23.7965L7.2364 23.7975L7.23725 23.7981ZM21.9991 47.3888L21.9663 48.3882C21.988 48.3889 22.0106 48.3889 22.0324 48.3882L21.9991 47.3888Z" fill="#C0A78F"/>
<path fill-rule="evenodd" clip-rule="evenodd" d="M22.0004 26.2832C22.1145 26.2832 22.207 26.1907 22.207 26.0766C22.207 25.9625 22.1145 25.87 22.0004 25.87C21.8863 25.87 21.7938 25.9625 21.7938 26.0766C21.7938 26.1907 21.8863 26.2832 22.0004 26.2832ZM20.207 26.0766C20.207 25.0861 21.01 24.2832 22.0004 24.2832C22.9909 24.2832 23.7938 25.0861 23.7938 26.0766C23.7938 27.0671 22.9909 27.87 22.0004 27.87C21.01 27.87 20.207 27.0671 20.207 26.0766Z" fill="#C0A78F"/>
<path fill-rule="evenodd" clip-rule="evenodd" d="M22.0004 31.8652C22.1145 31.8652 22.207 31.7727 22.207 31.6586C22.207 31.5445 22.1145 31.452 22.0004 31.452C21.8863 31.452 21.7938 31.5445 21.7938 31.6586C21.7938 31.7727 21.8863 31.8652 22.0004 31.8652ZM20.207 31.6586C20.207 30.6682 21.01 29.8652 22.0004 29.8652C22.9909 29.8652 23.7938 30.6682 23.7938 31.6586C23.7938 32.6491 22.9909 33.452 22.0004 33.452C21.01 33.452 20.207 32.6491 20.207 31.6586Z" fill="#C0A78F"/>
</svg>
