<svg width="19" height="11" viewBox="0 0 19 11" fill="none" xmlns="http://www.w3.org/2000/svg">
<path fill-rule="evenodd" clip-rule="evenodd" d="M10.232 10.6699C10.232 10.6699 10.5674 10.6315 10.7351 10.46C10.9028 10.2876 10.8842 9.96063 10.8842 9.96063C10.8842 9.96063 10.8656 8.44927 11.555 8.23847C12.2445 8.00801 13.1202 9.69356 14.0519 10.3251C14.76 10.8235 15.3004 10.7083 15.3004 10.7083L17.7787 10.6699C17.7787 10.6699 19.0831 10.5939 18.4681 9.55957C18.4122 9.48275 18.1141 8.79406 16.6225 7.39614C15.0573 5.94105 15.2622 6.17151 17.1443 3.6624C18.2809 2.11262 18.7468 1.17472 18.5977 0.77187C18.4672 0.389563 17.6287 0.486031 17.6287 0.486031L14.815 0.504789C14.815 0.504789 14.6109 0.486032 14.4619 0.580716C14.3128 0.657534 14.2196 0.867445 14.2196 0.867445C14.2196 0.867445 13.7724 2.07332 13.1761 3.08804C11.9277 5.21306 11.4432 5.32829 11.2382 5.19341C10.7538 4.88703 10.8656 3.94913 10.8656 3.29885C10.8656 1.21224 11.1823 0.350259 10.2693 0.139454C9.97114 0.0626357 9.74753 0.00546867 8.96491 0.00546867C7.95869 -0.0132894 7.12017 0.00546817 6.63569 0.235924C6.31891 0.40832 6.07668 0.752218 6.22575 0.77187C6.41209 0.790628 6.82203 0.887096 7.04564 1.19348C7.32514 1.57668 7.32514 2.47706 7.32514 2.47706C7.32514 2.47706 7.49285 4.90847 6.93383 5.21395C6.56116 5.42476 6.03941 4.9835 4.92138 3.05053C4.36237 2.05546 3.93379 0.963915 3.93379 0.963915C3.93379 0.963915 3.84063 0.753111 3.69156 0.657535C3.52385 0.523549 3.26298 0.465488 3.26298 0.465488L0.598352 0.485139C0.598352 0.485139 0.207042 0.503896 0.0579717 0.675398C-0.0724647 0.829036 0.0579717 1.15507 0.0579717 1.15507C0.0579717 1.15507 2.12632 6.07504 4.49281 8.54395C6.65522 10.8226 9.11399 10.669 9.11399 10.669H10.232V10.6699Z" fill="#2F2F2F"/>
</svg>
