<svg width="47" height="50" viewBox="0 0 47 50" fill="none" xmlns="http://www.w3.org/2000/svg">
<path fill-rule="evenodd" clip-rule="evenodd" d="M31.2757 0.373414C33.1096 -0.393562 35.5595 -0.0805826 38.2204 2.20664C39.3192 3.15161 39.9885 4.13041 40.3292 5.10295C40.6709 6.07804 40.6609 6.98578 40.4955 7.75192C40.3319 8.50929 40.0182 9.12364 39.7521 9.54391C39.6179 9.75589 39.4922 9.92409 39.3969 10.0427C39.3492 10.1021 39.3087 10.1496 39.2781 10.1843C39.2628 10.2016 39.25 10.2159 39.2399 10.2269L39.2314 10.236L34.6419 15.307L33.1591 13.965L37.7618 8.8793L37.7659 8.87505L37.7668 8.87408L37.7772 8.86246C37.7892 8.84883 37.8101 8.8245 37.8377 8.79017C37.8931 8.72121 37.9738 8.61387 38.0624 8.4739C38.242 8.19026 38.4401 7.79504 38.5405 7.32979C38.6391 6.87331 38.6453 6.34536 38.4418 5.76429C38.2373 5.18072 37.7997 4.48279 36.9166 3.72332C34.6662 1.78884 33.0054 1.81945 32.0507 2.21713C31.7268 2.35633 31.3374 2.71023 30.9169 3.24799C30.5739 3.68652 30.2802 4.15271 30.0238 4.5597C29.9753 4.63672 29.9281 4.71161 29.8822 4.78379C28.2128 7.4067 24.9259 12.5433 22.0572 17.0229C20.6227 19.2629 19.2925 21.3391 18.3209 22.8553L16.7368 25.327L6.84534 41.0976L30.22 17.0874L31.653 18.4825L1.71603 49.2335L0.152344 48.0046L15.0526 24.2483L15.8945 24.788C15.0526 24.2483 15.0525 24.2484 15.0526 24.2483L16.637 21.7762C17.6085 20.2602 18.9386 18.1841 20.373 15.9443C23.2421 11.4641 26.5273 6.33014 28.1949 3.71004C28.2331 3.64997 28.2747 3.58381 28.3195 3.51264C28.5737 3.10835 28.9295 2.54268 29.3414 2.01598C29.8119 1.41434 30.4608 0.720751 31.2693 0.376082L31.2757 0.373414Z" fill="#C0A78F"/>
<path fill-rule="evenodd" clip-rule="evenodd" d="M34.9376 5.6699C34.9376 5.6699 36.2346 6.7079 35.1236 8.3009C34.0126 9.8939 30.7515 13.7099 30.7515 13.7099C30.7515 13.7099 29.8256 14.4879 28.5656 13.5619C27.3066 12.6359 27.5285 11.4869 28.1955 10.5979C28.8625 9.7089 31.6776 5.9669 31.6776 5.9669C32.6866 4.6939 33.7736 4.5949 34.9376 5.6699Z" stroke="#C0A78F" stroke-width="2" stroke-miterlimit="3.8637"/>
<path d="M29.4546 8.96875C29.4546 8.96875 31.6406 10.7108 33.0486 12.7478C34.4566 14.7858 34.8176 21.8717 30.2146 30.5597C25.6116 39.2477 32.5486 44.9537 36.6986 44.6937C40.8476 44.4347 44.3496 42.5538 45.0626 38.3398" stroke="#C0A78F" stroke-width="2" stroke-miterlimit="3.8637"/>
<path d="M24.5075 6.56919C24.1195 6.37419 6.94954 2.13219 4.27854 12.9232C2.65754 19.4712 10.3675 20.9582 15.2305 18.0892" stroke="#C0A78F" stroke-width="2" stroke-miterlimit="3.8637"/>
</svg>
