<svg width="62" height="49" viewBox="0 0 62 49" fill="none" xmlns="http://www.w3.org/2000/svg">
<path fill-rule="evenodd" clip-rule="evenodd" d="M8.16319 4.86541H52.6229C53.484 4.86541 54.1947 5.06384 54.7587 5.42832C55.3226 5.79265 55.6712 6.27857 55.8811 6.74158C56.0874 7.19675 56.1639 7.63723 56.1918 7.95243C56.206 8.11281 56.2083 8.24859 56.2067 8.34834C56.2059 8.39842 56.2041 8.44002 56.2023 8.47176C56.2021 8.47541 56.2019 8.47893 56.2017 8.48232L56.1993 8.84184C56.1977 9.09321 56.1955 9.45568 56.193 9.89994C56.1881 10.7885 56.1822 12.004 56.1783 13.3119C56.1704 15.9334 56.1705 18.9088 56.2017 20.3762C56.2193 21.2039 56.0527 21.8938 55.7298 22.4503C55.4059 23.0088 54.9616 23.3692 54.5276 23.5946C54.1019 23.8157 53.6865 23.9077 53.3876 23.9469C53.2357 23.9668 53.1065 23.974 53.011 23.976C52.9631 23.9771 52.923 23.9768 52.8921 23.9761C52.8835 23.9759 52.8757 23.9757 52.8685 23.9754C52.8681 23.9754 52.8677 23.9754 52.8672 23.9754H42.8929L39.5909 18.3604H12.8339V16.3604H40.7349L44.0369 21.9754H52.9183L52.9386 21.9766C52.9413 21.9767 52.9456 21.9767 52.9515 21.9767C52.9562 21.9767 52.9618 21.9766 52.9684 21.9765C53.0024 21.9758 53.0581 21.973 53.1277 21.9639C53.2718 21.945 53.4457 21.9029 53.6057 21.8197C53.7575 21.7409 53.8954 21.6269 53.9998 21.4468C54.1054 21.2648 54.2135 20.9519 54.2021 20.4187C54.1703 18.9221 54.1704 15.9204 54.1783 13.3059C54.1822 11.9958 54.1882 10.7786 54.1931 9.88887C54.1955 9.444 54.1978 9.08097 54.1994 8.82913L54.2019 8.43807L54.2019 8.43683C54.2019 8.43675 54.2019 8.4364 55.2019 8.4434L54.2019 8.43683L54.2022 8.39308L54.2056 8.35787C54.2056 8.35764 54.2055 8.35812 54.2056 8.35787M8.16319 4.86541C7.16377 4.85799 6.28972 5.091 5.71781 5.79091C5.19399 6.43196 5.11151 7.2593 5.08761 7.90013L5.08691 7.91876V48.1474H58.8838L58.9027 48.1467C59.6242 48.1194 60.3311 47.915 60.8578 47.3881C61.3876 46.8581 61.5862 46.151 61.5997 45.4313L61.5999 45.4218V42.5141L61.5981 42.4839C61.5529 41.7389 61.3346 41.0165 60.8007 40.4823C60.2568 39.9382 59.5342 39.7371 58.7928 39.7364H27.9139V41.7364H58.791C59.1826 41.7368 59.3275 41.8376 59.3862 41.8962C59.4533 41.9634 59.569 42.1385 59.5999 42.5769V45.4022C59.5912 45.7889 59.4914 45.9261 59.4433 45.9742C59.3925 46.0251 59.2459 46.1294 58.8445 46.1474H7.08691V7.95667C7.11105 7.35131 7.199 7.13904 7.26653 7.0564C7.28707 7.03123 7.4272 6.85951 8.15082 6.86537L8.15892 6.86541V5.86541" fill="#C0A78F"/>
<path fill-rule="evenodd" clip-rule="evenodd" d="M12.125 1V5.914H10.125V1H12.125Z" fill="#C0A78F"/>
<path fill-rule="evenodd" clip-rule="evenodd" d="M7.80957 2.0625V0.0625H14.6569L14.6575 2.0625H7.80957Z" fill="#C0A78F"/>
<path fill-rule="evenodd" clip-rule="evenodd" d="M39.1318 17.3524V12.8984H41.1318V17.3524H39.1318Z" fill="#C0A78F"/>
<path fill-rule="evenodd" clip-rule="evenodd" d="M34.0371 17.3524V12.8984H36.0371V17.3524H34.0371Z" fill="#C0A78F"/>
<path fill-rule="evenodd" clip-rule="evenodd" d="M28.9434 17.3526V10.9766H30.9434V17.3526H28.9434Z" fill="#C0A78F"/>
<path fill-rule="evenodd" clip-rule="evenodd" d="M21.499 42.2296V17.3516H23.499V42.2296H21.499Z" fill="#C0A78F"/>
<path d="M10.6172 23.498H13.1042V25.985H10.6172V23.498Z" fill="#C0A78F"/>
<path d="M10.6172 28.9141H13.1042V31.4001H10.6172V28.9141Z" fill="#C0A78F"/>
<path fill-rule="evenodd" clip-rule="evenodd" d="M12.5889 36.4707V39.9317H16.0509V36.4707H12.5889ZM10.5889 35.9827C10.5889 35.1461 11.2669 34.4707 12.1019 34.4707H16.5379C17.3706 34.4707 18.0509 35.1449 18.0509 35.9827V40.4187C18.0509 41.2527 17.3754 41.9317 16.5379 41.9317H12.1019C11.2679 41.9317 10.5889 41.2563 10.5889 40.4187V35.9827Z" fill="#C0A78F"/>
<path fill-rule="evenodd" clip-rule="evenodd" d="M45.1875 21.9785H53.1515V29.9425H45.1875V21.9785ZM47.1875 23.9785V27.9425H51.1515V23.9785H47.1875Z" fill="#C0A78F"/>
<path fill-rule="evenodd" clip-rule="evenodd" d="M48.2227 35.8571V28.9531H50.2227V35.8571H48.2227Z" fill="#C0A78F"/>
<path fill-rule="evenodd" clip-rule="evenodd" d="M2 15.002H6.12799V13.002H1.854C0.829725 13.002 0 13.8317 0 14.856V25.474C0 26.4982 0.829725 27.328 1.854 27.328H6.091V25.328H2V15.002Z" fill="#C0A78F"/>
<path fill-rule="evenodd" clip-rule="evenodd" d="M1.09375 46.1484H6.76875V48.1484H1.09375V46.1484Z" fill="#C0A78F"/>
</svg>
