<svg width="40" height="42" viewBox="0 0 40 42" fill="none" xmlns="http://www.w3.org/2000/svg">
<path d="M1 10.9014H38.832V17.8384H1V10.9014Z" stroke="#D1B59A" stroke-width="2" stroke-miterlimit="3.8637"/>
<path d="M16.5 10.9023H23.068V40.1003H16.5V10.9023Z" stroke="#D1B59A" stroke-width="2" stroke-miterlimit="3.8637"/>
<path d="M37.5692 17.8584H2.43115V40.0994H37.5692V17.8584Z" stroke="#D1B59A" stroke-width="2" stroke-miterlimit="3.8637"/>
<path d="M20.1789 10.7888C20.1789 10.7888 19.6419 5.75277 20.9509 3.47077C22.2599 1.18877 25.7679 -0.0542263 27.3459 2.16177C28.9239 4.37677 27.7829 9.37777 20.5979 10.8888" stroke="#D1B59A" stroke-width="2" stroke-miterlimit="3.8637"/>
<path d="M19.9938 10.7888C19.9938 10.7888 20.5308 5.75277 19.2218 3.47077C17.9128 1.18877 14.4048 -0.0542263 12.8268 2.16177C11.2488 4.37677 12.3898 9.37777 19.5748 10.8888" stroke="#D1B59A" stroke-width="2" stroke-miterlimit="3.8637"/>
</svg>
